<svg xmlns="http://www.w3.org/2000/svg" xmlns:xlink="http://www.w3.org/1999/xlink" width="1080" zoomAndPan="magnify" viewBox="0 0 810 809.999993" height="1080" preserveAspectRatio="xMidYMid meet" version="1.0"><defs><g/></defs><rect x="-81" width="972" fill="#ffffff" y="-80.999999" height="971.999992" fill-opacity="1"/><rect x="-81" width="972" fill="#ffd33b" y="-80.999999" height="971.999992" fill-opacity="1"/><g fill="#272672" fill-opacity="1"><g transform="translate(49.312501, 449.487653)"><g><path d="M 100.375 -94.78125 L 103.109375 -94.78125 C 107.734375 -95.363281 110.59375 -94.351562 111.6875 -91.75 C 112.613281 -90.507812 113.15625 -88.800781 113.3125 -86.625 L 113.484375 -85.0625 C 113.640625 -82.882812 111.816406 -73.988281 108.015625 -58.375 C 105.722656 -51.300781 101.914062 -36.382812 96.59375 -13.625 C 94.6875 -4.539062 90.023438 1.597656 82.609375 4.796875 C 75.191406 8.003906 71.503906 5.648438 71.546875 -2.265625 C 74.378906 -13.109375 77.953125 -29.597656 82.265625 -51.734375 C 82.765625 -51.734375 82.914062 -53.050781 82.71875 -55.6875 C 77.75 -48.425781 73.554688 -41.863281 70.140625 -36 C 61.640625 -23.257812 55.796875 -15.800781 52.609375 -13.625 C 52.453125 -13.625 51.675781 -13.507812 50.28125 -13.28125 C 47.519531 -13.90625 45.265625 -15.769531 43.515625 -18.875 C 42.117188 -22.53125 41.285156 -25.910156 41.015625 -29.015625 C 41.210938 -36.972656 40.84375 -53.398438 39.90625 -78.296875 C 38.820312 -77.597656 37.054688 -74.507812 34.609375 -69.03125 C 31.148438 -60.101562 25.128906 -38.257812 16.546875 -3.5 C 9.242188 1.4375 3.144531 0.660156 -1.75 -5.828125 C -2.25 -16.429688 0.835938 -32.394531 7.515625 -53.71875 C 13.453125 -70.144531 18.5 -81.113281 22.65625 -86.625 C 24.0625 -88.175781 27.695312 -89.519531 33.5625 -90.65625 C 37.789062 -91.382812 40.953125 -90.796875 43.046875 -88.890625 C 45.148438 -86.992188 46.628906 -83.425781 47.484375 -78.1875 L 48 -71.546875 C 48.425781 -65.984375 48.289062 -51.300781 47.59375 -27.5 C 48.0625 -26.445312 48.507812 -25.921875 48.9375 -25.921875 C 50.289062 -25.492188 55.109375 -32.195312 63.390625 -46.03125 C 70.609375 -57.90625 80.0625 -71.1875 91.75 -85.875 C 96.882812 -91.070312 99.757812 -94.039062 100.375 -94.78125 Z M 100.375 -94.78125 "/></g></g></g><g fill="#272672" fill-opacity="1"><g transform="translate(156.212535, 449.487653)"><g><path d="M 50.5625 -55 C 56.507812 -68.90625 61.65625 -79.691406 66 -87.359375 C 70.351562 -95.023438 75.484375 -98.859375 81.390625 -98.859375 L 82.609375 -98.859375 C 83.117188 -98.859375 84.378906 -98.609375 86.390625 -98.109375 C 77.304688 -69.554688 68.269531 -47.796875 59.28125 -32.828125 C 50.289062 -17.859375 39.363281 -6.394531 26.5 1.5625 C 13.644531 9.53125 4.226562 13.4375 -1.75 13.28125 C -5.75 13.707031 -9.066406 12.6875 -11.703125 10.21875 C -14.347656 7.757812 -12.210938 5.632812 -5.296875 3.84375 C 13.765625 -2.914062 27.375 -14.625 35.53125 -31.28125 C 35.6875 -31.476562 35.820312 -31.671875 35.9375 -31.859375 C 29.882812 -50.660156 24.613281 -63.882812 20.125 -71.53125 C 15.644531 -79.1875 11.96875 -82.691406 9.09375 -82.046875 C 6.21875 -81.410156 3.984375 -80.53125 2.390625 -79.40625 C 0.796875 -78.28125 0.0234375 -78.359375 0.078125 -79.640625 C 0.140625 -80.921875 0.765625 -82.113281 1.953125 -83.21875 C 3.140625 -84.320312 5.21875 -85.476562 8.1875 -86.6875 C 11.15625 -87.894531 14.742188 -87.4375 18.953125 -85.3125 C 23.171875 -83.195312 27.382812 -78.984375 31.59375 -72.671875 C 35.8125 -66.359375 40.972656 -57.828125 47.078125 -47.078125 Z M 50.5625 -55 "/></g></g></g><g fill="#272672" fill-opacity="1"><g transform="translate(225.712123, 449.487653)"><g/></g></g><g fill="#272672" fill-opacity="1"><g transform="translate(255.306234, 449.487653)"><g><path d="M 25.28125 -23.1875 C 25.59375 -22.644531 25.882812 -22.140625 26.15625 -21.671875 C 29.882812 -18.097656 35.648438 -16.347656 43.453125 -16.421875 C 48.003906 -16.421875 52.6875 -17.550781 57.5 -19.8125 C 58.28125 -20.351562 59.035156 -20.9375 59.765625 -21.5625 C 63.492188 -24.707031 65.359375 -29.617188 65.359375 -36.296875 L 65.359375 -37.171875 C 65.359375 -43.773438 64.007812 -48.035156 61.3125 -49.953125 C 58.613281 -51.878906 55.945312 -52.84375 53.3125 -52.84375 C 44.84375 -52.84375 39.070312 -51.441406 36 -48.640625 C 32.9375 -45.847656 30.351562 -42.160156 28.25 -37.578125 C 26.738281 -34.347656 25.75 -29.550781 25.28125 -23.1875 Z M 72.421875 -19.984375 C 66.828125 -13.691406 59.25 -8.875 49.6875 -5.53125 C 41.726562 -3.476562 36.3125 -2.453125 33.4375 -2.453125 C 20.226562 -1.828125 11.441406 -5.738281 7.078125 -14.1875 C 2.710938 -22.632812 1.613281 -32.21875 3.78125 -42.9375 L 5.0625 -49.171875 C 8.363281 -58.296875 14.328125 -67.675781 22.953125 -77.3125 C 23.460938 -77.3125 25.640625 -78.921875 29.484375 -82.140625 C 34.523438 -86.378906 43.457031 -89.523438 56.28125 -91.578125 C 57.832031 -91.847656 59.695312 -91.984375 61.875 -91.984375 C 73.019531 -90.242188 77.816406 -85.644531 76.265625 -78.1875 C 72.804688 -73.632812 68.96875 -72.726562 64.75 -75.46875 C 60.539062 -78.207031 54.640625 -78.34375 47.046875 -75.875 C 39.453125 -73.414062 33.476562 -67.332031 29.125 -57.625 C 28.894531 -57.070312 28.664062 -56.523438 28.4375 -55.984375 C 30.332031 -57.265625 32.390625 -58.46875 34.609375 -59.59375 C 35.066406 -59.59375 39.316406 -60.117188 47.359375 -61.171875 C 57.804688 -60.429688 65.523438 -58.613281 70.515625 -55.71875 C 75.503906 -52.832031 78.492188 -49.164062 79.484375 -44.71875 C 80.484375 -40.269531 80.984375 -37.285156 80.984375 -35.765625 L 80.984375 -34.203125 C 80.671875 -33.378906 80.359375 -32.597656 80.046875 -31.859375 C 80.117188 -31.585938 80.097656 -31.222656 79.984375 -30.765625 C 77.847656 -26.722656 75.328125 -23.128906 72.421875 -19.984375 Z M 72.421875 -19.984375 "/></g></g></g><g fill="#272672" fill-opacity="1"><g transform="translate(337.447389, 449.487653)"><g><path d="M 53.703125 -82.171875 C 57.898438 -77.960938 60.40625 -72.613281 61.21875 -66.125 C 62.039062 -59.632812 62.453125 -55.265625 62.453125 -53.015625 L 62.453125 -50.6875 C 58.222656 -30.800781 49.484375 -16.875 36.234375 -8.90625 C 29.597656 -5.84375 25.070312 -4.3125 22.65625 -4.3125 C 10.539062 -3.34375 4.054688 -9.90625 3.203125 -24 L 3.203125 -36.765625 C 3.203125 -58.472656 10 -75.484375 23.59375 -87.796875 C 23.976562 -87.796875 27.550781 -88.570312 34.3125 -90.125 C 43.050781 -89.039062 49.515625 -86.390625 53.703125 -82.171875 Z M 17.296875 -20.28125 C 17.296875 -15.613281 19.09375 -13.28125 22.6875 -13.28125 C 26.28125 -13.28125 29.660156 -15.078125 32.828125 -18.671875 C 35.992188 -22.265625 38.878906 -26.59375 41.484375 -31.65625 C 44.085938 -36.726562 45.390625 -44.625 45.390625 -55.34375 L 45.390625 -56.75 C 45.390625 -67.34375 44.445312 -74.203125 42.5625 -77.328125 C 40.675781 -80.460938 38.800781 -82.03125 36.9375 -82.03125 C 31.03125 -82.03125 27.019531 -79.765625 24.90625 -75.234375 C 22.789062 -70.710938 20.992188 -64.769531 19.515625 -57.40625 C 18.035156 -50.050781 17.296875 -37.675781 17.296875 -20.28125 Z M 17.296875 -20.28125 "/></g></g></g><g fill="#272672" fill-opacity="1"><g transform="translate(400.946577, 449.487653)"><g><path d="M 53.703125 -82.171875 C 57.898438 -77.960938 60.40625 -72.613281 61.21875 -66.125 C 62.039062 -59.632812 62.453125 -55.265625 62.453125 -53.015625 L 62.453125 -50.6875 C 58.222656 -30.800781 49.484375 -16.875 36.234375 -8.90625 C 29.597656 -5.84375 25.070312 -4.3125 22.65625 -4.3125 C 10.539062 -3.34375 4.054688 -9.90625 3.203125 -24 L 3.203125 -36.765625 C 3.203125 -58.472656 10 -75.484375 23.59375 -87.796875 C 23.976562 -87.796875 27.550781 -88.570312 34.3125 -90.125 C 43.050781 -89.039062 49.515625 -86.390625 53.703125 -82.171875 Z M 17.296875 -20.28125 C 17.296875 -15.613281 19.09375 -13.28125 22.6875 -13.28125 C 26.28125 -13.28125 29.660156 -15.078125 32.828125 -18.671875 C 35.992188 -22.265625 38.878906 -26.59375 41.484375 -31.65625 C 44.085938 -36.726562 45.390625 -44.625 45.390625 -55.34375 L 45.390625 -56.75 C 45.390625 -67.34375 44.445312 -74.203125 42.5625 -77.328125 C 40.675781 -80.460938 38.800781 -82.03125 36.9375 -82.03125 C 31.03125 -82.03125 27.019531 -79.765625 24.90625 -75.234375 C 22.789062 -70.710938 20.992188 -64.769531 19.515625 -57.40625 C 18.035156 -50.050781 17.296875 -37.675781 17.296875 -20.28125 Z M 17.296875 -20.28125 "/></g></g></g><g fill="#272672" fill-opacity="1"><g transform="translate(464.445765, 449.487653)"><g/></g></g><g fill="#272672" fill-opacity="1"><g transform="translate(494.039864, 449.487653)"><g><path d="M 21.5 -100.4375 C 31.75 -100.4375 38.972656 -97.328125 43.171875 -91.109375 C 44.023438 -89.753906 44.453125 -88.515625 44.453125 -87.390625 L 44.453125 -78.765625 C 44.453125 -67.890625 39.148438 -48.53125 28.546875 -20.6875 C 23.421875 -7.675781 20.46875 0.867188 19.6875 4.953125 L 19.6875 7.40625 C 19.6875 7.976562 20.289062 8.578125 21.5 9.203125 L 27.140625 9.203125 C 37.128906 6.835938 47.640625 3.75 58.671875 -0.0625 L 60.46875 -0.0625 C 61.320312 0.0507812 61.75 0.476562 61.75 1.21875 L 61.75 2.96875 C 53.40625 7.78125 34.429688 15.023438 4.828125 24.703125 L 2.328125 24.703125 C -0.117188 24.703125 -2.253906 23.71875 -4.078125 21.75 C -5.898438 19.789062 -5.84375 15.820312 -3.90625 9.84375 C 16.789062 -47.832031 27.140625 -79.804688 27.140625 -86.078125 C 27.140625 -92.347656 25.257812 -96.941406 21.5 -99.859375 Z M 21.5 -100.4375 "/></g></g></g><g fill="#272672" fill-opacity="1"><g transform="translate(542.916753, 449.487653)"><g><path d="M 16.046875 -11.296875 C 15.441406 -4.773438 17.453125 -2.347656 22.078125 -4.015625 C 26.703125 -5.691406 29.734375 -8.332031 31.171875 -11.9375 C 32.609375 -15.550781 33.328125 -18.742188 33.328125 -21.515625 C 33.328125 -24.296875 33.328125 -25.820312 33.328125 -26.09375 C 33.328125 -26.363281 33.21875 -28.421875 33 -32.265625 C 32.789062 -36.117188 31.8125 -38.550781 30.0625 -39.5625 L 28.375 -39.5625 C 24.988281 -39.5625 22.675781 -38.191406 21.4375 -35.453125 C 20.195312 -32.710938 19.140625 -29.632812 18.265625 -26.21875 C 17.390625 -22.800781 16.648438 -17.828125 16.046875 -11.296875 Z M 4.890625 1.1875 C 1.941406 -2.90625 0.726562 -8.191406 1.25 -14.671875 C 1.769531 -21.160156 7.160156 -41.066406 17.421875 -74.390625 C 18.585938 -77.503906 19.539062 -81.273438 20.28125 -85.703125 C 19.8125 -86.742188 19.578125 -88.273438 19.578125 -90.296875 L 20.28125 -90.703125 C 28.082031 -88.222656 31.984375 -86.1875 31.984375 -84.59375 C 32.796875 -84.59375 33.628906 -82.222656 34.484375 -77.484375 C 34.484375 -77.015625 33.785156 -74.238281 32.390625 -69.15625 C 31.109375 -64.488281 28.71875 -57.28125 25.21875 -47.53125 C 26.195312 -47.5 27.148438 -47.40625 28.078125 -47.25 C 33.628906 -46.46875 38.097656 -43.960938 41.484375 -39.734375 C 44.390625 -30.992188 45.84375 -26.273438 45.84375 -25.578125 C 45.84375 -24.878906 45.84375 -24.285156 45.84375 -23.796875 C 45.84375 -23.304688 44.890625 -19.925781 42.984375 -13.65625 C 41.085938 -7.382812 38.140625 -2.867188 34.140625 -0.109375 C 30.140625 2.640625 25.003906 4.566406 18.734375 5.671875 C 12.460938 6.785156 7.847656 5.289062 4.890625 1.1875 Z M 4.890625 1.1875 "/></g></g></g><g fill="#272672" fill-opacity="1"><g transform="translate(589.288669, 449.487653)"><g/></g></g><g fill="#272672" fill-opacity="1"><g transform="translate(618.882814, 449.487653)"><g><path d="M 21.5 -100.4375 C 31.75 -100.4375 38.972656 -97.328125 43.171875 -91.109375 C 44.023438 -89.753906 44.453125 -88.515625 44.453125 -87.390625 L 44.453125 -78.765625 C 44.453125 -67.890625 39.148438 -48.53125 28.546875 -20.6875 C 23.421875 -7.675781 20.46875 0.867188 19.6875 4.953125 L 19.6875 7.40625 C 19.6875 7.976562 20.289062 8.578125 21.5 9.203125 L 27.140625 9.203125 C 37.128906 6.835938 47.640625 3.75 58.671875 -0.0625 L 60.46875 -0.0625 C 61.320312 0.0507812 61.75 0.476562 61.75 1.21875 L 61.75 2.96875 C 53.40625 7.78125 34.429688 15.023438 4.828125 24.703125 L 2.328125 24.703125 C -0.117188 24.703125 -2.253906 23.71875 -4.078125 21.75 C -5.898438 19.789062 -5.84375 15.820312 -3.90625 9.84375 C 16.789062 -47.832031 27.140625 -79.804688 27.140625 -86.078125 C 27.140625 -92.347656 25.257812 -96.941406 21.5 -99.859375 Z M 21.5 -100.4375 "/></g></g></g><g fill="#272672" fill-opacity="1"><g transform="translate(667.759703, 449.487653)"><g><path d="M 16.046875 -56.9375 C 16.804688 -57.3125 17.851562 -57.097656 19.1875 -56.296875 C 20.53125 -55.503906 21.203125 -54.78125 21.203125 -54.125 L 21.203125 -52.3125 C 21.203125 -47.695312 19.109375 -45.390625 14.921875 -45.390625 L 13.75 -45.390625 C 13.164062 -45.390625 12.582031 -45.96875 12 -47.125 L 12 -50.5625 C 13.945312 -54.445312 15.296875 -56.570312 16.046875 -56.9375 Z M 10.3125 -43.109375 C 14.507812 -42.210938 16.609375 -40.289062 16.609375 -37.34375 L 16.609375 -35.65625 C 10.816406 -25.789062 7.921875 -19.050781 7.921875 -15.4375 C 8.816406 -14.269531 9.691406 -13.6875 10.546875 -13.6875 C 11.398438 -13.6875 12.835938 -14.171875 14.859375 -15.140625 C 16.878906 -16.117188 21.226562 -19.769531 27.90625 -26.09375 C 28.6875 -25.976562 29.078125 -25.570312 29.078125 -24.875 C 29.078125 -23.789062 26.785156 -21.320312 22.203125 -17.46875 C 17.617188 -13.625 13.65625 -11.585938 10.3125 -11.359375 C 5.925781 -11.359375 3.03125 -14.617188 1.625 -21.140625 L 1.625 -22.375 C 1.625 -24.976562 3.9375 -31.132812 8.5625 -40.84375 C 8.757812 -42.351562 9.34375 -43.109375 10.3125 -43.109375 Z M 10.3125 -43.109375 "/></g></g></g><g fill="#272672" fill-opacity="1"><g transform="translate(694.732328, 449.487653)"><g><path d="M 49.109375 -97.40625 C 53.773438 -97.40625 57.113281 -95.8125 59.125 -92.625 C 58.394531 -92.238281 57.816406 -92.046875 57.390625 -92.046875 C 56.179688 -92.046875 54.585938 -92.453125 52.609375 -93.265625 C 48.253906 -93.265625 43.144531 -90.296875 37.28125 -84.359375 C 31.84375 -77.171875 25.125 -62.175781 17.125 -39.375 C 17.125 -39.144531 16.738281 -37.960938 15.96875 -35.828125 C 21.675781 -34.742188 26.488281 -34.742188 30.40625 -35.828125 L 32.15625 -37.046875 L 32.734375 -35.828125 L 32.734375 -31.171875 C 32.734375 -30.347656 32.328125 -29.9375 31.515625 -29.9375 C 27.285156 -28.8125 21.710938 -28.8125 14.796875 -29.9375 C 7.847656 -1.863281 4.296875 19.046875 4.140625 32.796875 C 3.085938 39.398438 1.707031 43.148438 0 44.046875 L -2.96875 44.046875 C -3.820312 44.046875 -4.597656 42.257812 -5.296875 38.6875 C -6.035156 31.96875 -6.210938 22.9375 -5.828125 11.59375 C -5.441406 0.25 -2.722656 -15.1875 2.328125 -34.71875 L -5.828125 -39.03125 C -7.847656 -42.875 -5.320312 -43.203125 1.75 -40.015625 L 3.609375 -38.796875 C 14.796875 -77.867188 29.960938 -97.40625 49.109375 -97.40625 Z M 49.109375 -97.40625 "/></g></g></g><g fill="#272672" fill-opacity="1"><g transform="translate(724.559474, 449.487653)"><g><path d="M 20.390625 -52.078125 L 28.65625 -52.078125 C 31.613281 -50.484375 33.09375 -49.300781 33.09375 -48.53125 L 33.09375 -45.671875 C 31.84375 -38.722656 25.046875 -32.6875 12.703125 -27.5625 L 12.171875 -27.5625 L 12.171875 -25.21875 C 14.234375 -22.113281 16.625 -20.5625 19.34375 -20.5625 L 19.859375 -20.5625 C 24.015625 -20.375 29.820312 -22.976562 37.28125 -28.375 L 37.75 -27.140625 L 37.75 -25.984375 C 30.757812 -18.878906 24.0625 -15.328125 17.65625 -15.328125 C 7.007812 -16.992188 1.6875 -21.847656 1.6875 -29.890625 C 3.507812 -38.117188 6.65625 -43.960938 11.125 -47.421875 C 15.363281 -50.523438 18.453125 -52.078125 20.390625 -52.078125 Z M 12.171875 -34.015625 L 12.171875 -33.375 C 18.273438 -35.082031 22.878906 -38.382812 25.984375 -43.28125 L 26.453125 -44.515625 L 26.453125 -45.03125 L 25.984375 -46.25 C 16.773438 -43.300781 12.171875 -39.222656 12.171875 -34.015625 Z M 12.171875 -34.015625 "/></g></g></g></svg>