<svg xmlns="http://www.w3.org/2000/svg" xmlns:xlink="http://www.w3.org/1999/xlink" width="1080" zoomAndPan="magnify" viewBox="0 0 810 809.999993" height="1080" preserveAspectRatio="xMidYMid meet" version="1.0"><defs><g/></defs><rect x="-81" width="972" fill="#ffffff" y="-80.999999" height="971.999992" fill-opacity="1"/><rect x="-81" width="972" fill="#ffd33b" y="-80.999999" height="971.999992" fill-opacity="1"/><g fill="#be0208" fill-opacity="1"><g transform="translate(86.205362, 435.497811)"><g><path d="M 4.421875 -27.015625 C 4.421875 -31.953125 5.664062 -36.539062 8.15625 -40.78125 C 10.65625 -45.03125 14.007812 -48.410156 18.21875 -50.921875 C 22.4375 -53.441406 27.039062 -54.703125 32.03125 -54.703125 C 36.96875 -54.703125 41.554688 -53.441406 45.796875 -50.921875 C 50.046875 -48.410156 53.425781 -45.03125 55.9375 -40.78125 C 58.457031 -36.539062 59.71875 -31.953125 59.71875 -27.015625 C 59.71875 -22.023438 58.46875 -17.410156 55.96875 -13.171875 C 53.476562 -8.929688 50.097656 -5.578125 45.828125 -3.109375 C 41.566406 -0.640625 36.96875 0.59375 32.03125 0.59375 C 27.039062 0.59375 22.425781 -0.625 18.1875 -3.0625 C 13.945312 -5.507812 10.59375 -8.84375 8.125 -13.0625 C 5.65625 -17.28125 4.421875 -21.929688 4.421875 -27.015625 Z M 11.90625 -26.9375 C 11.90625 -23.25 12.800781 -19.832031 14.59375 -16.6875 C 16.382812 -13.539062 18.835938 -11.046875 21.953125 -9.203125 C 25.078125 -7.359375 28.488281 -6.4375 32.1875 -6.4375 C 35.875 -6.4375 39.25 -7.347656 42.3125 -9.171875 C 45.382812 -10.992188 47.804688 -13.488281 49.578125 -16.65625 C 51.347656 -19.820312 52.234375 -23.273438 52.234375 -27.015625 C 52.234375 -30.753906 51.335938 -34.222656 49.546875 -37.421875 C 47.753906 -40.617188 45.3125 -43.140625 42.21875 -44.984375 C 39.125 -46.828125 35.726562 -47.75 32.03125 -47.75 C 28.34375 -47.75 24.953125 -46.8125 21.859375 -44.9375 C 18.765625 -43.070312 16.332031 -40.539062 14.5625 -37.34375 C 12.789062 -34.15625 11.90625 -30.6875 11.90625 -26.9375 Z M 11.90625 -26.9375 "/></g></g></g><g fill="#be0208" fill-opacity="1"><g transform="translate(145.708736, 435.497811)"><g><path d="M 34.875 -30.984375 L 34.875 0 L 28.59375 0 L 28.140625 -5.90625 C 27.085938 -3.8125 25.460938 -2.101562 23.265625 -0.78125 C 21.078125 0.539062 18.632812 1.203125 15.9375 1.203125 C 13.09375 1.203125 10.757812 0.34375 8.9375 -1.375 C 7.125 -3.101562 6.164062 -5.335938 6.0625 -8.078125 L 6.0625 -30.984375 L 13.015625 -30.984375 L 13.015625 -10.546875 C 13.117188 -8.804688 13.628906 -7.421875 14.546875 -6.390625 C 15.472656 -5.367188 16.859375 -4.835938 18.703125 -4.796875 C 20.398438 -4.796875 21.945312 -5.304688 23.34375 -6.328125 C 24.75 -7.347656 25.863281 -8.753906 26.6875 -10.546875 C 27.507812 -12.347656 27.921875 -14.347656 27.921875 -16.546875 L 27.921875 -30.984375 Z M 34.875 -30.984375 "/></g></g></g><g fill="#be0208" fill-opacity="1"><g transform="translate(182.009365, 435.497811)"><g><path d="M 16.09375 -44.609375 L 16.09375 -30.90625 L 24.546875 -30.90625 L 24.546875 -25.375 L 16.09375 -25.375 L 16.09375 0 L 9.0625 0 L 9.0625 -25.375 L 3.375 -25.375 L 3.375 -30.90625 L 9.0625 -30.90625 L 9.0625 -44.609375 Z M 16.09375 -44.609375 "/></g></g></g><g fill="#0c4796" fill-opacity="1"><g transform="translate(212.203118, 433.874998)"><g><path d="M 51.921875 -28.28125 C 51.921875 -19.226562 49.425781 -12.25 44.4375 -7.34375 C 39.457031 -2.445312 32.453125 0 23.421875 0 L 5.859375 0 L 5.859375 -54.25 L 24.640625 -54.25 C 33.347656 -54.25 40.070312 -52.019531 44.8125 -47.5625 C 49.550781 -43.113281 51.921875 -36.6875 51.921875 -28.28125 Z M 36.703125 -27.765625 C 36.703125 -32.734375 35.71875 -36.414062 33.75 -38.8125 C 31.78125 -41.21875 28.796875 -42.421875 24.796875 -42.421875 L 20.515625 -42.421875 L 20.515625 -12.03125 L 23.78125 -12.03125 C 28.238281 -12.03125 31.503906 -13.320312 33.578125 -15.90625 C 35.660156 -18.488281 36.703125 -22.441406 36.703125 -27.765625 Z M 36.703125 -27.765625 "/></g></g></g><g fill="#0c4796" fill-opacity="1"><g transform="translate(267.975645, 433.874998)"><g><path d="M 39.15625 0 L 36.484375 -10.171875 L 18.859375 -10.171875 L 16.109375 0 L 0 0 L 17.703125 -54.484375 L 37.265625 -54.484375 L 55.1875 0 Z M 33.4375 -22.1875 L 31.09375 -31.09375 C 30.550781 -33.070312 29.890625 -35.632812 29.109375 -38.78125 C 28.328125 -41.925781 27.816406 -44.175781 27.578125 -45.53125 C 27.347656 -44.269531 26.90625 -42.191406 26.25 -39.296875 C 25.59375 -36.398438 24.140625 -30.695312 21.890625 -22.1875 Z M 33.4375 -22.1875 "/></g></g></g><g fill="#0c4796" fill-opacity="1"><g transform="translate(323.154453, 433.874998)"><g><path d="M 51.984375 -54.25 L 51.984375 -21.59375 C 51.984375 -14.5 49.972656 -9 45.953125 -5.09375 C 41.941406 -1.195312 36.148438 0.75 28.578125 0.75 C 21.179688 0.75 15.492188 -1.140625 11.515625 -4.921875 C 7.546875 -8.710938 5.5625 -14.160156 5.5625 -21.265625 L 5.5625 -54.25 L 20.296875 -54.25 L 20.296875 -22.421875 C 20.296875 -18.578125 21.015625 -15.789062 22.453125 -14.0625 C 23.890625 -12.332031 26.003906 -11.46875 28.796875 -11.46875 C 31.785156 -11.46875 33.953125 -12.328125 35.296875 -14.046875 C 36.648438 -15.765625 37.328125 -18.578125 37.328125 -22.484375 L 37.328125 -54.25 Z M 51.984375 -54.25 "/></g></g></g><g fill="#0c4796" fill-opacity="1"><g transform="translate(380.671024, 433.874998)"><g><path d="M 27.640625 -31.765625 L 51.0625 -31.765625 L 51.0625 -2.53125 C 44.707031 -0.34375 37.71875 0.75 30.09375 0.75 C 21.726562 0.75 15.265625 -1.675781 10.703125 -6.53125 C 6.140625 -11.382812 3.859375 -18.300781 3.859375 -27.28125 C 3.859375 -36.03125 6.359375 -42.84375 11.359375 -47.71875 C 16.359375 -52.59375 23.359375 -55.03125 32.359375 -55.03125 C 35.773438 -55.03125 39 -54.707031 42.03125 -54.0625 C 45.0625 -53.425781 47.703125 -52.613281 49.953125 -51.625 L 45.3125 -40.109375 C 41.40625 -42.046875 37.113281 -43.015625 32.4375 -43.015625 C 28.15625 -43.015625 24.84375 -41.617188 22.5 -38.828125 C 20.164062 -36.046875 19 -32.070312 19 -26.90625 C 19 -21.832031 20.054688 -17.960938 22.171875 -15.296875 C 24.285156 -12.640625 27.335938 -11.3125 31.328125 -11.3125 C 33.503906 -11.3125 35.503906 -11.523438 37.328125 -11.953125 L 37.328125 -20.453125 L 27.640625 -20.453125 Z M 27.640625 -31.765625 "/></g></g></g><g fill="#0c4796" fill-opacity="1"><g transform="translate(436.925931, 433.874998)"><g><path d="M 52.359375 0 L 37.625 0 L 37.625 -22.125 L 20.59375 -22.125 L 20.59375 0 L 5.859375 0 L 5.859375 -54.25 L 20.59375 -54.25 L 20.59375 -34.140625 L 37.625 -34.140625 L 37.625 -54.25 L 52.359375 -54.25 Z M 52.359375 0 "/></g></g></g><g fill="#0c4796" fill-opacity="1"><g transform="translate(495.147562, 433.874998)"><g><path d="M 29.796875 0 L 15.140625 0 L 15.140625 -42.265625 L 1.890625 -42.265625 L 1.890625 -54.25 L 43.015625 -54.25 L 43.015625 -42.265625 L 29.796875 -42.265625 Z M 29.796875 0 "/></g></g></g><g fill="#0c4796" fill-opacity="1"><g transform="translate(540.047584, 433.874998)"><g><path d="M 38.078125 0 L 5.859375 0 L 5.859375 -54.25 L 38.078125 -54.25 L 38.078125 -42.484375 L 20.515625 -42.484375 L 20.515625 -33.953125 L 36.78125 -33.953125 L 36.78125 -22.1875 L 20.515625 -22.1875 L 20.515625 -11.953125 L 38.078125 -11.953125 Z M 38.078125 0 "/></g></g></g><g fill="#0c4796" fill-opacity="1"><g transform="translate(581.756376, 433.874998)"><g><path d="M 20.515625 -19.75 L 20.515625 0 L 5.859375 0 L 5.859375 -54.25 L 23.640625 -54.25 C 38.378906 -54.25 45.75 -48.90625 45.75 -38.21875 C 45.75 -31.9375 42.679688 -27.078125 36.546875 -23.640625 L 52.359375 0 L 35.734375 0 L 24.234375 -19.75 Z M 20.515625 -30.765625 L 23.265625 -30.765625 C 28.390625 -30.765625 30.953125 -33.03125 30.953125 -37.5625 C 30.953125 -41.289062 28.441406 -43.15625 23.421875 -43.15625 L 20.515625 -43.15625 Z M 20.515625 -30.765625 "/></g></g></g><g fill="#0c4796" fill-opacity="1"><g transform="translate(633.187334, 433.874998)"><g><path d="M 38.078125 0 L 5.859375 0 L 5.859375 -54.25 L 38.078125 -54.25 L 38.078125 -42.484375 L 20.515625 -42.484375 L 20.515625 -33.953125 L 36.78125 -33.953125 L 36.78125 -22.1875 L 20.515625 -22.1875 L 20.515625 -11.953125 L 38.078125 -11.953125 Z M 38.078125 0 "/></g></g></g><g fill="#0c4796" fill-opacity="1"><g transform="translate(674.896148, 433.874998)"><g><path d="M 51.921875 -28.28125 C 51.921875 -19.226562 49.425781 -12.25 44.4375 -7.34375 C 39.457031 -2.445312 32.453125 0 23.421875 0 L 5.859375 0 L 5.859375 -54.25 L 24.640625 -54.25 C 33.347656 -54.25 40.070312 -52.019531 44.8125 -47.5625 C 49.550781 -43.113281 51.921875 -36.6875 51.921875 -28.28125 Z M 36.703125 -27.765625 C 36.703125 -32.734375 35.71875 -36.414062 33.75 -38.8125 C 31.78125 -41.21875 28.796875 -42.421875 24.796875 -42.421875 L 20.515625 -42.421875 L 20.515625 -12.03125 L 23.78125 -12.03125 C 28.238281 -12.03125 31.503906 -13.320312 33.578125 -15.90625 C 35.660156 -18.488281 36.703125 -22.441406 36.703125 -27.765625 Z M 36.703125 -27.765625 "/></g></g></g></svg>