<svg xmlns="http://www.w3.org/2000/svg" xmlns:xlink="http://www.w3.org/1999/xlink" width="1080" zoomAndPan="magnify" viewBox="0 0 810 809.999993" height="1080" preserveAspectRatio="xMidYMid meet" version="1.0"><defs><g/></defs><rect x="-81" width="972" fill="#ffffff" y="-80.999999" height="971.999992" fill-opacity="1"/><rect x="-81" width="972" fill="#ffd33b" y="-80.999999" height="971.999992" fill-opacity="1"/><g fill="#000000" fill-opacity="1"><g transform="translate(45.070314, 584.893695)"><g><path d="M 7.75 0 L 29.335938 0 C 40.050781 0 46.738281 -5.699219 46.738281 -14.894531 C 46.738281 -20.898438 43.773438 -25.382812 38.304688 -27.585938 C 42.632812 -29.792969 45.21875 -33.894531 45.21875 -39.0625 C 45.21875 -47.652344 38.53125 -53.199219 28.347656 -53.199219 L 7.75 -53.199219 Z M 14.441406 -6.230469 L 14.441406 -24.089844 L 29.105469 -24.089844 C 36.023438 -24.089844 39.898438 -20.824219 39.898438 -15.199219 C 39.898438 -9.5 36.023438 -6.230469 29.183594 -6.230469 Z M 14.441406 -30.171875 L 14.441406 -46.964844 L 28.195312 -46.964844 C 34.65625 -46.964844 38.378906 -43.925781 38.378906 -38.53125 C 38.378906 -33.210938 34.730469 -30.171875 28.195312 -30.171875 Z M 14.441406 -30.171875 "/></g></g></g><g fill="#000000" fill-opacity="1"><g transform="translate(96.063696, 584.893695)"><g><path d="M 31.917969 0.988281 C 48.105469 0.988281 59.507812 -10.410156 59.507812 -26.597656 C 59.507812 -42.785156 48.105469 -54.1875 31.917969 -54.1875 C 15.730469 -54.1875 4.40625 -42.785156 4.40625 -26.597656 C 4.40625 -10.410156 15.730469 0.988281 31.917969 0.988281 Z M 11.246094 -26.597656 C 11.246094 -38.988281 19.683594 -47.5 31.917969 -47.5 C 44.15625 -47.5 52.589844 -38.988281 52.589844 -26.597656 C 52.589844 -14.210938 44.15625 -5.699219 31.917969 -5.699219 C 19.683594 -5.699219 11.246094 -14.210938 11.246094 -26.597656 Z M 11.246094 -26.597656 "/></g></g></g><g fill="#000000" fill-opacity="1"><g transform="translate(159.900417, 584.893695)"><g><path d="M 7.75 0 L 40.277344 0 L 40.277344 -6.382812 L 14.441406 -6.382812 L 14.441406 -53.199219 L 7.75 -53.199219 Z M 7.75 0 "/></g></g></g><g fill="#000000" fill-opacity="1"><g transform="translate(202.534223, 584.893695)"><g><path d="M 7.75 0 L 26.144531 0 C 42.484375 0 53.425781 -10.867188 53.425781 -26.597656 C 53.425781 -42.332031 42.484375 -53.199219 26.144531 -53.199219 L 7.75 -53.199219 Z M 14.441406 -6.382812 L 14.441406 -46.816406 L 25.839844 -46.816406 C 38.226562 -46.816406 46.585938 -38.683594 46.585938 -26.597656 C 46.585938 -14.515625 38.304688 -6.382812 26.144531 -6.382812 Z M 14.441406 -6.382812 "/></g></g></g><g fill="#000000" fill-opacity="1"><g transform="translate(260.36727, 584.893695)"><g/></g></g><g fill="#000000" fill-opacity="1"><g transform="translate(279.214315, 584.893695)"><g><path d="M 22.191406 0.988281 C 28.804688 0.988281 34.199219 -0.835938 38.304688 -4.257812 L 42.484375 0 L 51.070312 0 L 42.332031 -8.890625 C 45.21875 -13.222656 46.738281 -18.921875 46.890625 -25.761719 L 40.507812 -25.761719 C 40.429688 -20.976562 39.441406 -16.871094 37.695312 -13.679688 L 25.761719 -25.761719 C 34.808594 -29.257812 39.367188 -34.425781 39.367188 -41.039062 C 39.367188 -48.867188 32.984375 -54.1875 23.710938 -54.1875 C 14.515625 -54.1875 8.285156 -49.09375 8.285156 -41.648438 C 8.285156 -36.933594 10.714844 -32.601562 14.894531 -28.042969 C 7.523438 -24.546875 4.105469 -19.835938 4.105469 -13.375 C 4.105469 -4.332031 10.867188 0.988281 22.191406 0.988281 Z M 10.488281 -13.527344 C 10.488281 -17.785156 13.300781 -21.050781 19.304688 -23.484375 L 33.667969 -8.816406 C 30.777344 -6.460938 26.902344 -5.167969 22.265625 -5.167969 C 14.972656 -5.167969 10.488281 -8.285156 10.488281 -13.527344 Z M 14.515625 -41.722656 C 14.515625 -45.75 18.085938 -48.335938 23.636719 -48.335938 C 29.410156 -48.335938 33.136719 -45.523438 33.136719 -41.039062 C 33.136719 -36.78125 29.5625 -33.589844 21.203125 -30.550781 C 16.339844 -35.71875 14.515625 -38.835938 14.515625 -41.722656 Z M 14.515625 -41.722656 "/></g></g></g><g fill="#000000" fill-opacity="1"><g transform="translate(333.095545, 584.893695)"><g/></g></g><g fill="#000000" fill-opacity="1"><g transform="translate(351.942567, 584.893695)"><g><path d="M 7.75 0 L 29.335938 0 C 40.050781 0 46.738281 -5.699219 46.738281 -14.894531 C 46.738281 -20.898438 43.773438 -25.382812 38.304688 -27.585938 C 42.632812 -29.792969 45.21875 -33.894531 45.21875 -39.0625 C 45.21875 -47.652344 38.53125 -53.199219 28.347656 -53.199219 L 7.75 -53.199219 Z M 14.441406 -6.230469 L 14.441406 -24.089844 L 29.105469 -24.089844 C 36.023438 -24.089844 39.898438 -20.824219 39.898438 -15.199219 C 39.898438 -9.5 36.023438 -6.230469 29.183594 -6.230469 Z M 14.441406 -30.171875 L 14.441406 -46.964844 L 28.195312 -46.964844 C 34.65625 -46.964844 38.378906 -43.925781 38.378906 -38.53125 C 38.378906 -33.210938 34.730469 -30.171875 28.195312 -30.171875 Z M 14.441406 -30.171875 "/></g></g></g><g fill="#000000" fill-opacity="1"><g transform="translate(402.93595, 584.893695)"><g><path d="M 7.75 0 L 40.886719 0 L 40.886719 -6.230469 L 14.441406 -6.230469 L 14.441406 -24.015625 L 38.152344 -24.015625 L 38.152344 -30.171875 L 14.441406 -30.171875 L 14.441406 -46.964844 L 40.050781 -46.964844 L 40.050781 -53.199219 L 7.75 -53.199219 Z M 7.75 0 "/></g></g></g><g fill="#000000" fill-opacity="1"><g transform="translate(448.761593, 584.893695)"><g><path d="M 1.292969 0 L 8.4375 0 L 13.300781 -12.082031 L 39.214844 -12.082031 L 44.230469 0 L 51.296875 0 L 29.410156 -53.199219 L 23.179688 -53.199219 Z M 15.882812 -18.316406 L 26.296875 -43.851562 L 36.707031 -18.316406 Z M 15.882812 -18.316406 "/></g></g></g><g fill="#000000" fill-opacity="1"><g transform="translate(501.350901, 584.893695)"><g><path d="M 27.664062 0.910156 C 40.507812 0.910156 48.257812 -7.523438 48.257812 -21.660156 L 48.257812 -53.199219 L 41.570312 -53.199219 L 41.570312 -22.117188 C 41.570312 -11.246094 36.78125 -5.625 27.664062 -5.625 C 18.621094 -5.625 13.753906 -11.246094 13.753906 -22.117188 L 13.753906 -53.199219 L 7.144531 -53.199219 L 7.144531 -21.660156 C 7.144531 -7.523438 14.820312 0.910156 27.664062 0.910156 Z M 27.664062 0.910156 "/></g></g></g><g fill="#000000" fill-opacity="1"><g transform="translate(556.752067, 584.893695)"><g><path d="M 20.59375 0 L 27.28125 0 L 27.28125 -46.816406 L 45.21875 -46.816406 L 45.21875 -53.199219 L 2.582031 -53.199219 L 2.582031 -46.816406 L 20.59375 -46.816406 Z M 20.59375 0 "/></g></g></g><g fill="#000000" fill-opacity="1"><g transform="translate(604.629612, 584.893695)"><g><path d="M 7.75 0 L 14.441406 0 L 14.441406 -53.199219 L 7.75 -53.199219 Z M 7.75 0 "/></g></g></g><g fill="#000000" fill-opacity="1"><g transform="translate(626.820484, 584.893695)"><g><path d="M 7.75 0 L 14.441406 0 L 14.441406 -22.417969 L 36.25 -22.417969 L 36.25 -28.574219 L 14.441406 -28.574219 L 14.441406 -46.964844 L 38.226562 -46.964844 L 38.226562 -53.199219 L 7.75 -53.199219 Z M 7.75 0 "/></g></g></g><g fill="#000000" fill-opacity="1"><g transform="translate(669.226289, 584.893695)"><g><path d="M 27.664062 0.910156 C 40.507812 0.910156 48.257812 -7.523438 48.257812 -21.660156 L 48.257812 -53.199219 L 41.570312 -53.199219 L 41.570312 -22.117188 C 41.570312 -11.246094 36.78125 -5.625 27.664062 -5.625 C 18.621094 -5.625 13.753906 -11.246094 13.753906 -22.117188 L 13.753906 -53.199219 L 7.144531 -53.199219 L 7.144531 -21.660156 C 7.144531 -7.523438 14.820312 0.910156 27.664062 0.910156 Z M 27.664062 0.910156 "/></g></g></g><g fill="#000000" fill-opacity="1"><g transform="translate(724.627455, 584.893695)"><g><path d="M 7.75 0 L 40.277344 0 L 40.277344 -6.382812 L 14.441406 -6.382812 L 14.441406 -53.199219 L 7.75 -53.199219 Z M 7.75 0 "/></g></g></g><g fill="#000000" fill-opacity="1"><g transform="translate(361.59999, 489.851181)"><g><path d="M 31.550781 0 L 155.132812 0 C 208.472656 0 244.53125 -29.300781 244.53125 -73.621094 C 244.53125 -101.792969 229.882812 -124.332031 205.09375 -135.226562 C 225 -146.871094 236.644531 -167.53125 236.644531 -192.320312 C 236.644531 -235.519531 202.464844 -262.9375 149.125 -262.9375 L 31.550781 -262.9375 Z M 90.527344 -47.328125 L 90.527344 -110.433594 L 146.117188 -110.433594 C 169.785156 -110.433594 183.304688 -98.789062 183.304688 -78.882812 C 183.304688 -58.972656 169.785156 -47.328125 146.117188 -47.328125 Z M 90.527344 -155.886719 L 90.527344 -215.609375 L 140.109375 -215.609375 C 163.023438 -215.609375 175.792969 -205.09375 175.792969 -185.933594 C 175.792969 -166.777344 163.023438 -155.886719 140.109375 -155.886719 Z M 90.527344 -155.886719 "/></g></g></g><g fill="#000000" fill-opacity="1"><g transform="translate(189.586824, 489.851181)"><g><path d="M 31.550781 0 L 155.132812 0 C 208.472656 0 244.53125 -29.300781 244.53125 -73.621094 C 244.53125 -101.792969 229.882812 -124.332031 205.09375 -135.226562 C 225 -146.871094 236.644531 -167.53125 236.644531 -192.320312 C 236.644531 -235.519531 202.464844 -262.9375 149.125 -262.9375 L 31.550781 -262.9375 Z M 90.527344 -47.328125 L 90.527344 -110.433594 L 146.117188 -110.433594 C 169.785156 -110.433594 183.304688 -98.789062 183.304688 -78.882812 C 183.304688 -58.972656 169.785156 -47.328125 146.117188 -47.328125 Z M 90.527344 -155.886719 L 90.527344 -215.609375 L 140.109375 -215.609375 C 163.023438 -215.609375 175.792969 -205.09375 175.792969 -185.933594 C 175.792969 -166.777344 163.023438 -155.886719 140.109375 -155.886719 Z M 90.527344 -155.886719 "/></g></g></g><g fill="#fefefe" fill-opacity="1"><g transform="translate(364.314096, 383.071835)"><g><path d="M 37.261719 1.675781 C 49.121094 1.675781 58.660156 -1.933594 65.496094 -8.765625 L 74.003906 0 L 84.0625 0 L 70.007812 -14.3125 C 75.035156 -21.789062 77.613281 -31.714844 77.742188 -43.707031 L 70.265625 -43.707031 C 70.136719 -34.035156 68.203125 -26.042969 64.59375 -19.855469 L 40.226562 -44.867188 C 57.5 -51.441406 65.367188 -59.566406 65.367188 -70.78125 C 65.367188 -83.289062 55.179688 -91.925781 40.097656 -91.925781 C 25.140625 -91.925781 14.957031 -83.675781 14.957031 -71.425781 C 14.957031 -63.304688 19.597656 -56.082031 27.460938 -47.445312 C 14.054688 -41.386719 7.605469 -33.003906 7.605469 -21.917969 C 7.605469 -7.21875 18.953125 1.675781 37.261719 1.675781 Z M 15.085938 -22.046875 C 15.085938 -30.425781 20.886719 -37.132812 32.746094 -42.03125 L 60.082031 -14.054688 C 54.664062 -8.507812 46.929688 -5.542969 37.390625 -5.542969 C 23.59375 -5.542969 15.085938 -11.730469 15.085938 -22.046875 Z M 22.304688 -71.425781 C 22.304688 -79.675781 29.265625 -84.964844 40.097656 -84.964844 C 51.054688 -84.964844 58.015625 -79.417969 58.015625 -70.78125 C 58.015625 -62.402344 51.441406 -56.597656 34.9375 -50.28125 C 25.785156 -59.953125 22.304688 -65.753906 22.304688 -71.425781 Z M 22.304688 -71.425781 "/></g></g></g></svg>