<svg xmlns="http://www.w3.org/2000/svg" xmlns:xlink="http://www.w3.org/1999/xlink" width="1080" zoomAndPan="magnify" viewBox="0 0 810 809.999993" height="1080" preserveAspectRatio="xMidYMid meet" version="1.0"><defs><filter x="0%" y="0%" width="100%" height="100%" id="id1"><feColorMatrix values="0 0 0 0 1 0 0 0 0 1 0 0 0 0 1 0 0 0 1 0" color-interpolation-filters="sRGB"/></filter><g/><mask id="id2"><g filter="url(#id1)"><rect x="-81" width="972" fill="#000000" y="-80.999999" height="971.999992" fill-opacity="0.8275"/></g></mask><clipPath id="id3"><rect x="0" width="225" y="0" height="498"/></clipPath><mask id="id4"><g filter="url(#id1)"><rect x="-81" width="972" fill="#000000" y="-80.999999" height="971.999992" fill-opacity="0.8275"/></g></mask><clipPath id="id5"><rect x="0" width="258" y="0" height="429"/></clipPath></defs><rect x="-81" width="972" fill="#ffffff" y="-80.999999" height="971.999992" fill-opacity="1"/><rect x="-81" width="972" fill="#ffd33b" y="-80.999999" height="971.999992" fill-opacity="1"/><g mask="url(#id2)"><g transform="matrix(1, 0, 0, 1, 310, 0.000000000000039746)"><g clip-path="url(#id3)"><g fill="#be0208" fill-opacity="1"><g transform="translate(50.114535, 368.509533)"><g><path d="M -5.5 103.34375 C 1.179688 104.128906 10.214844 103.34375 16.109375 100.988281 C 27.507812 96.664062 46.761719 80.160156 58.941406 64.050781 C 80.945312 36.152344 109.632812 -16.898438 124.5625 -56.976562 C 144.210938 -108.453125 160.320312 -159.535156 163.464844 -178.789062 C 164.25 -185.074219 163.855469 -186.648438 161.890625 -189.792969 C 160.714844 -192.148438 158.75 -193.722656 157.570312 -193.722656 C 156.785156 -193.722656 156 -194.898438 156 -196.078125 C 156 -197.648438 155.605469 -197.648438 153.640625 -196.078125 C 151.675781 -194.507812 151.675781 -194.898438 152.070312 -197.257812 C 152.460938 -198.828125 152.460938 -200.402344 152.070312 -200.402344 C 151.28125 -200.402344 150.496094 -201.578125 150.496094 -203.152344 C 150.105469 -205.117188 148.925781 -206.296875 146.175781 -206.296875 C 139.886719 -207.082031 135.566406 -200.792969 127.707031 -179.183594 C 119.0625 -155.605469 78.195312 -94.304688 55.796875 -71.121094 C 46.761719 -62.085938 33.398438 -52.261719 29.472656 -52.261719 C 25.148438 -52.261719 25.542969 -73.875 30.257812 -91.949219 C 35.757812 -113.558594 49.902344 -148.140625 62.871094 -172.5 C 75.445312 -196.472656 76.625 -198.828125 74.660156 -202.367188 C 73.875 -203.9375 72.300781 -205.507812 71.121094 -205.507812 C 69.15625 -205.507812 63.265625 -211.402344 63.265625 -213.367188 C 63.265625 -215.726562 54.617188 -214.152344 49.511719 -210.617188 C 27.507812 -194.898438 -3.929688 -131.242188 -8.25 -93.519531 C -9.429688 -82.519531 -7.074219 -68.371094 -1.964844 -58.15625 C 2.75 -48.726562 11.789062 -38.117188 14.933594 -38.117188 C 16.109375 -38.117188 18.46875 -36.542969 20.433594 -34.1875 C 22.398438 -31.828125 25.542969 -29.472656 27.507812 -28.292969 C 31.433594 -26.328125 40.472656 -25.933594 46.761719 -27.898438 C 50.296875 -29.472656 53.441406 -31.042969 64.835938 -39.292969 C 66.800781 -40.867188 66.015625 -38.507812 61.300781 -29.863281 C 28.683594 31.433594 -8.644531 75.050781 -27.898438 75.050781 C -32.222656 75.050781 -38.507812 72.695312 -38.507812 70.730469 C -38.507812 70.335938 -40.082031 69.945312 -42.042969 70.335938 C -47.152344 70.730469 -47.152344 75.050781 -42.042969 81.730469 C -39.6875 84.484375 -35.757812 88.019531 -33.398438 89.199219 C -30.648438 90.375 -27.898438 92.734375 -26.71875 93.914062 C -23.96875 97.058594 -12.574219 102.558594 -5.5 103.34375 Z M 27.113281 -102.164062 C 27.113281 -103.738281 35.757812 -127.707031 37.328125 -130.851562 C 38.117188 -131.636719 38.507812 -132.421875 38.507812 -132.027344 C 38.507812 -130.851562 27.113281 -100.59375 27.113281 -102.164062 Z M 42.042969 -139.496094 C 40.472656 -135.957031 38.902344 -133.207031 38.902344 -133.601562 C 38.507812 -135.171875 44.007812 -147.746094 44.796875 -146.960938 C 44.796875 -146.960938 43.617188 -143.425781 42.042969 -139.496094 Z M 55.011719 -196.472656 C 56.976562 -198.042969 57.371094 -198.042969 55.796875 -196.078125 C 53.832031 -194.113281 53.046875 -193.328125 53.046875 -194.507812 C 53.046875 -194.507812 53.832031 -195.6875 55.011719 -196.472656 Z M 7.464844 -102.949219 C 7.074219 -102.558594 6.679688 -103.34375 6.679688 -104.523438 C 6.679688 -106.09375 7.074219 -106.488281 7.464844 -105.308594 C 7.859375 -104.523438 7.859375 -103.34375 7.464844 -102.949219 Z M 11.394531 -119.847656 C 16.109375 -135.171875 33.792969 -173.289062 35.363281 -173.289062 C 35.757812 -173.289062 32.613281 -166.609375 28.683594 -158.355469 C 24.753906 -150.105469 18.46875 -135.171875 14.933594 -124.957031 C 7.464844 -106.09375 5.5 -102.949219 11.394531 -119.847656 Z M 22.003906 -130.457031 C 18.46875 -121.027344 13.753906 -107.273438 11.789062 -99.808594 C 7.464844 -84.484375 6.679688 -85.269531 10.214844 -101.378906 C 15.324219 -122.992188 29.472656 -157.175781 42.4375 -178.394531 C 46.761719 -185.46875 51.082031 -191.757812 51.867188 -192.148438 C 52.65625 -192.542969 52.65625 -191.363281 51.082031 -189.398438 C 41.257812 -174.074219 30.257812 -152.070312 22.003906 -130.457031 Z M 41.257812 -165.035156 C 47.546875 -178.003906 62.871094 -202.367188 64.050781 -201.1875 C 64.441406 -200.792969 61.300781 -195.6875 57.371094 -189.792969 C 48.726562 -176.824219 36.9375 -154.035156 29.078125 -134.386719 C 25.542969 -126.527344 22.789062 -119.453125 22.398438 -119.0625 C 19.648438 -116.703125 33.007812 -148.53125 41.257812 -165.035156 Z M 106.488281 -27.898438 C 101.773438 -17.683594 97.449219 -8.644531 96.664062 -7.859375 C 95.878906 -7.074219 97.449219 -11.394531 99.808594 -16.898438 C 102.558594 -22.398438 107.667969 -34.578125 111.597656 -43.617188 C 115.917969 -52.65625 119.0625 -59.726562 119.453125 -59.726562 C 119.847656 -58.941406 115.132812 -46.761719 106.488281 -27.898438 Z M 80.945312 -74.265625 C 82.910156 -75.839844 82.910156 -75.839844 81.339844 -73.875 C 79.765625 -71.910156 78.589844 -71.121094 78.589844 -71.910156 C 78.589844 -72.300781 79.765625 -73.480469 80.945312 -74.265625 Z M 63.265625 0 C 68.765625 -9.824219 89.199219 -49.902344 94.699219 -62.476562 C 104.523438 -84.875 105.703125 -87.234375 106.488281 -86.839844 C 108.058594 -85.269531 79.765625 -25.933594 67.191406 -4.324219 C 63.265625 1.964844 60.121094 6.679688 59.726562 6.679688 C 59.726562 6.679688 60.90625 3.929688 63.265625 0 Z M 48.726562 32.613281 C 67.980469 3.535156 94.304688 -47.152344 113.558594 -94.304688 C 117.097656 -102.949219 120.632812 -110.417969 121.417969 -110.808594 C 121.8125 -111.203125 121.027344 -108.453125 119.847656 -104.914062 C 118.277344 -100.988281 115.132812 -93.128906 112.773438 -87.234375 C 97.058594 -46.367188 74.660156 -3.144531 52.65625 29.078125 C 48.332031 35.363281 44.402344 40.867188 43.617188 41.257812 C 42.832031 41.652344 45.1875 37.722656 48.726562 32.613281 Z M 46.761719 45.972656 C 61.691406 26.328125 78.589844 -3.144531 96.269531 -38.902344 C 102.949219 -52.261719 108.058594 -62.871094 108.058594 -62.476562 C 108.058594 -60.511719 97.84375 -37.722656 89.199219 -20.039062 C 79.375 -0.394531 65.230469 23.183594 54.617188 38.117188 C 50.691406 43.222656 45.972656 49.117188 44.007812 50.691406 C 42.4375 52.65625 43.617188 50.296875 46.761719 45.972656 Z M 39.6875 55.40625 C 41.652344 53.832031 41.652344 54.226562 40.082031 56.191406 C 39.292969 57.371094 38.117188 58.15625 38.117188 58.15625 C 36.9375 58.15625 37.722656 57.371094 39.6875 55.40625 Z M 39.6875 55.40625 "/></g></g></g></g></g></g><g mask="url(#id4)"><g transform="matrix(1, 0, 0, 1, 276, 316)"><g clip-path="url(#id5)"><g fill="#be0208" fill-opacity="1"><g transform="translate(0.750202, 338.436999)"><g><path d="M 31.066406 -110.25 C 37.664062 -107.773438 47.5625 -109.972656 49.214844 -114.097656 C 50.039062 -115.746094 48.113281 -117.945312 45.914062 -117.945312 C 42.613281 -117.945312 28.867188 -121.796875 27.492188 -123.171875 C 25.570312 -125.09375 26.667969 -130.320312 30.792969 -139.117188 C 36.566406 -151.214844 43.164062 -159.734375 54.988281 -170.183594 C 78.355469 -191.355469 120.96875 -213.898438 154.511719 -223.246094 C 171.558594 -227.917969 184.480469 -230.394531 197.675781 -230.667969 C 211.421875 -231.21875 222.695312 -230.121094 223.519531 -227.917969 C 225.171875 -224.070312 212.523438 -202.902344 200.976562 -189.152344 C 191.628906 -178.15625 168.808594 -155.335938 157.8125 -145.988281 C 142.140625 -132.242188 115.195312 -112.996094 113.824219 -114.648438 C 112.996094 -115.472656 131.144531 -144.339844 141.316406 -158.363281 C 146.8125 -165.511719 150.9375 -174.582031 151.761719 -180.082031 C 152.3125 -183.929688 152.039062 -184.480469 149.289062 -186.953125 L 146.539062 -189.703125 L 144.066406 -187.78125 C 142.964844 -186.679688 142.140625 -186.128906 142.964844 -186.953125 C 144.339844 -188.878906 144.339844 -191.902344 142.691406 -191.078125 C 141.867188 -190.804688 141.039062 -191.628906 140.492188 -193.828125 C 138.292969 -200.152344 132.519531 -199.601562 123.71875 -192.726562 C 118.222656 -188.054688 108.324219 -174.582031 94.027344 -152.039062 C 69.832031 -114.097656 56.359375 -80.003906 53.613281 -51.6875 C 52.238281 -36.566406 58.5625 -26.667969 74.230469 -18.695312 C 78.632812 -16.496094 83.304688 -14.570312 84.40625 -14.570312 C 86.878906 -14.570312 88.527344 -17.320312 87.429688 -18.96875 C 86.054688 -21.167969 86.328125 -41.238281 87.980469 -49.488281 C 89.351562 -57.734375 93.753906 -72.855469 94.578125 -72.855469 C 94.851562 -72.855469 96.5 -70.109375 98.152344 -66.808594 C 102.550781 -58.5625 115.472656 -39.039062 123.445312 -29.417969 C 143.789062 -3.847656 169.910156 17.320312 184.753906 20.34375 C 186.679688 20.894531 190.527344 21.167969 192.726562 20.894531 C 197.675781 20.621094 207.023438 16.769531 209.222656 14.023438 C 210.050781 13.195312 211.148438 12.371094 211.972656 12.371094 C 212.523438 12.371094 214.171875 11.546875 215.546875 10.171875 C 217.746094 8.523438 218.023438 7.699219 217.199219 6.046875 C 216.371094 4.675781 214.722656 3.300781 212.523438 2.75 C 199.601562 -1.925781 192.453125 -5.773438 179.804688 -15.394531 C 165.785156 -26.117188 150.9375 -41.515625 135.265625 -61.035156 C 128.945312 -68.734375 117.121094 -85.230469 114.921875 -88.804688 C 114.371094 -89.628906 116.023438 -89.902344 120.96875 -89.902344 C 138.566406 -89.902344 164.683594 -105.300781 197.953125 -135.265625 C 205.925781 -142.140625 220.769531 -158.910156 229.292969 -169.910156 C 236.167969 -178.980469 245.515625 -196.851562 247.164062 -204.277344 C 249.640625 -214.171875 246.890625 -227.371094 241.117188 -234.519531 C 239.742188 -236.441406 237.265625 -240.566406 235.617188 -243.867188 C 228.746094 -258.4375 213.347656 -265.035156 187.503906 -263.9375 C 156.160156 -262.835938 127.84375 -253.488281 91.003906 -232.320312 C 55.8125 -212.25 29.96875 -189.429688 17.320312 -168.257812 C 11.273438 -157.8125 6.875 -142.414062 7.972656 -135.542969 C 9.347656 -128.394531 22.820312 -113.273438 31.066406 -110.25 Z M 144.890625 -173.484375 C 145.441406 -174.308594 146.265625 -176.230469 146.8125 -177.605469 C 147.363281 -178.980469 147.914062 -179.804688 148.1875 -179.53125 C 148.464844 -179.257812 147.914062 -177.332031 146.8125 -175.40625 C 145.714844 -173.484375 144.613281 -171.832031 144.339844 -171.832031 C 144.066406 -171.832031 144.339844 -172.382812 144.890625 -173.484375 Z M 134.71875 -182.554688 C 136.367188 -183.65625 136.367188 -183.65625 135.265625 -182.28125 C 134.441406 -181.457031 133.890625 -180.632812 133.617188 -180.632812 C 132.792969 -180.632812 133.34375 -181.457031 134.71875 -182.554688 Z M 81.105469 -103.375 C 82.203125 -105.300781 82.753906 -106.125 82.753906 -105.574219 C 82.753906 -105.300781 82.203125 -103.375 81.105469 -101.726562 C 80.28125 -99.800781 79.457031 -98.976562 79.457031 -99.527344 C 79.457031 -99.800781 80.28125 -101.726562 81.105469 -103.375 Z M 67.359375 -58.011719 C 66.535156 -53.613281 65.710938 -48.9375 65.433594 -47.839844 C 65.433594 -46.464844 65.160156 -47.5625 65.160156 -49.761719 C 64.882812 -58.011719 68.734375 -72.308594 75.882812 -90.726562 C 77.257812 -94.851562 78.90625 -98.152344 78.90625 -97.875 C 79.179688 -97.601562 78.082031 -93.753906 76.15625 -89.351562 C 72.03125 -78.632812 69.007812 -67.910156 67.359375 -58.011719 Z M 72.582031 -64.882812 C 71.757812 -61.035156 70.65625 -54.160156 70.109375 -49.214844 L 68.734375 -40.140625 L 68.734375 -46.738281 C 68.457031 -54.160156 70.933594 -67.632812 74.507812 -77.53125 C 78.355469 -89.351562 83.304688 -100.625 83.855469 -100.351562 C 84.40625 -100.074219 83.855469 -97.601562 82.753906 -95.125 C 78.632812 -84.953125 73.957031 -71.207031 72.582031 -64.882812 Z M 86.054688 -62.136719 C 85.777344 -60.484375 84.679688 -55.261719 83.855469 -50.585938 C 82.203125 -42.339844 82.203125 -42.339844 82.480469 -47.839844 C 82.753906 -50.863281 83.855469 -56.359375 84.679688 -59.386719 C 85.777344 -62.683594 86.328125 -63.785156 86.054688 -62.136719 Z M 85.777344 -88.804688 C 81.65625 -78.355469 76.980469 -63.234375 75.332031 -54.988281 C 74.507812 -50.863281 73.683594 -47.289062 73.40625 -47.011719 C 72.855469 -46.464844 73.132812 -48.113281 75.332031 -60.484375 C 77.257812 -70.933594 85.777344 -96.226562 87.429688 -96.226562 C 88.527344 -96.226562 88.527344 -96.226562 85.777344 -88.804688 Z M 89.628906 -110.25 C 87.703125 -106.125 85.503906 -103.101562 85.503906 -104.75 C 85.503906 -105.847656 92.652344 -119.320312 97.875 -128.394531 C 107.5 -145.164062 128.394531 -176.230469 132.242188 -178.980469 C 133.066406 -179.804688 132.242188 -178.15625 130.320312 -175.683594 C 126.46875 -170.734375 116.023438 -155.335938 108.875 -143.789062 C 102.550781 -134.441406 92.652344 -117.121094 89.628906 -110.25 Z M 96.5 -112.449219 C 94.300781 -108.597656 92.378906 -105.300781 91.828125 -105.300781 C 89.628906 -105.300781 105.847656 -133.34375 120.96875 -155.613281 C 135.265625 -176.78125 139.667969 -182.554688 140.214844 -182.003906 C 140.492188 -181.730469 139.390625 -179.804688 138.015625 -177.882812 C 124.542969 -159.734375 103.648438 -126.746094 96.5 -112.449219 Z M 177.058594 6.875 C 176.78125 6.875 172.933594 4.398438 168.257812 1.101562 C 154.511719 -8.796875 135.542969 -28.867188 121.246094 -48.386719 C 114.921875 -57.1875 118.496094 -53.335938 126.46875 -42.613281 C 138.566406 -26.945312 161.660156 -4.125 175.40625 5.5 C 176.78125 6.324219 177.332031 6.875 177.058594 6.875 Z M 183.65625 6.597656 C 183.65625 7.421875 182.554688 6.875 176.230469 2.472656 C 155.613281 -11.273438 137.464844 -29.96875 118.222656 -57.1875 C 111.621094 -66.535156 101.449219 -83.578125 102 -84.40625 C 102.273438 -84.40625 103.925781 -82.203125 105.300781 -79.457031 C 106.949219 -76.707031 111.074219 -70.109375 114.648438 -64.882812 C 133.617188 -36.566406 154.511719 -14.023438 176.230469 1.101562 C 180.355469 4.125 183.65625 6.324219 183.65625 6.597656 Z M 158.910156 -28.867188 C 164.410156 -23.644531 171.285156 -17.597656 174.03125 -15.121094 C 177.058594 -12.648438 179.804688 -10.171875 180.355469 -9.898438 C 180.90625 -9.347656 180.90625 -9.074219 180.632812 -9.074219 C 178.980469 -9.074219 160.285156 -25.570312 153.414062 -33.265625 C 150.9375 -36.015625 153.414062 -34.089844 158.910156 -28.867188 Z M 144.613281 -43.714844 C 145.714844 -42.890625 146.8125 -42.066406 146.8125 -41.789062 C 146.8125 -40.964844 145.988281 -41.515625 144.339844 -43.441406 L 142.691406 -45.640625 Z M 140.214844 -49.214844 C 141.316406 -48.386719 142.140625 -47.289062 142.140625 -47.289062 C 142.140625 -46.464844 141.589844 -47.011719 139.941406 -48.9375 L 138.292969 -50.863281 Z M 138.015625 -40.140625 C 140.492188 -37.117188 147.640625 -29.691406 153.6875 -23.371094 C 160.011719 -17.046875 164.683594 -11.820312 164.410156 -11.820312 C 163.035156 -11.820312 139.117188 -36.566406 132.519531 -44.8125 C 118.769531 -62.410156 101.726562 -88.253906 102.824219 -89.628906 C 103.101562 -89.902344 104.75 -87.703125 106.398438 -84.953125 C 112.722656 -73.40625 127.84375 -52.238281 138.015625 -40.140625 Z M 186.679688 -156.4375 C 199.601562 -170.457031 206.199219 -177.882812 213.625 -187.503906 C 217.472656 -192.453125 221.046875 -196.851562 221.597656 -197.402344 C 222.972656 -198.777344 219.121094 -192.726562 213.625 -185.03125 C 210.597656 -180.90625 201.527344 -171.007812 193.554688 -162.761719 C 185.304688 -154.511719 182.28125 -151.761719 186.679688 -156.4375 Z M 192.179688 -144.890625 C 190.804688 -143.515625 189.429688 -142.140625 189.152344 -142.140625 C 188.605469 -142.140625 189.152344 -142.691406 191.902344 -145.164062 L 194.652344 -147.914062 Z M 170.457031 -129.492188 C 164.960938 -125.371094 160.011719 -121.519531 159.460938 -121.246094 C 158.910156 -120.695312 158.363281 -120.421875 158.363281 -120.695312 C 158.363281 -120.96875 161.386719 -123.445312 164.960938 -126.46875 C 168.535156 -129.21875 172.933594 -133.066406 174.582031 -134.441406 C 194.925781 -152.589844 195.753906 -153.414062 215.824219 -175.40625 C 217.472656 -177.058594 216.921875 -175.957031 214.449219 -172.65625 C 207.847656 -163.585938 181.457031 -138.015625 170.457031 -129.492188 Z M 228.195312 -176.230469 C 228.746094 -176.230469 225.171875 -171.558594 218.570312 -163.308594 C 212.25 -155.613281 201.527344 -144.066406 201.527344 -145.164062 C 201.527344 -145.441406 204 -148.464844 207.023438 -151.761719 C 210.324219 -155.0625 216.097656 -161.9375 220.222656 -166.882812 C 224.34375 -172.109375 227.917969 -176.230469 228.195312 -176.230469 Z M 224.894531 -194.101562 C 213.898438 -176.507812 195.203125 -156.4375 171.285156 -136.367188 C 166.882812 -132.519531 163.035156 -129.492188 162.484375 -129.492188 C 162.210938 -129.492188 163.585938 -130.867188 165.785156 -132.792969 C 183.105469 -147.089844 211.148438 -176.78125 221.597656 -191.628906 C 227.371094 -200.152344 229.570312 -201.800781 224.894531 -194.101562 Z M 47.5625 -180.355469 C 54.710938 -186.40625 54.710938 -186.40625 45.089844 -176.507812 C 35.464844 -166.335938 28.867188 -157.535156 24.46875 -147.640625 C 21.71875 -141.867188 20.34375 -140.214844 21.996094 -144.613281 C 26.394531 -156.4375 36.566406 -170.457031 47.5625 -180.355469 Z M 32.992188 -168.808594 C 29.96875 -164.410156 25.84375 -158.363281 24.46875 -155.335938 C 22.820312 -152.3125 20.621094 -147.363281 19.519531 -144.339844 C 18.421875 -141.316406 17.320312 -139.667969 17.320312 -140.492188 C 17.320312 -146.265625 26.667969 -163.308594 34.367188 -171.832031 C 38.765625 -176.507812 38.765625 -176.507812 32.992188 -168.808594 Z M 23.371094 -161.109375 C 23.644531 -162.210938 24.195312 -162.484375 24.46875 -162.210938 C 24.742188 -161.9375 24.46875 -161.386719 23.644531 -160.835938 C 22.820312 -159.734375 22.820312 -160.011719 23.371094 -161.109375 Z M 22.269531 -159.1875 C 22.542969 -159.1875 21.445312 -156.160156 19.796875 -152.589844 C 17.046875 -145.714844 16.496094 -144.890625 16.496094 -146.539062 C 16.496094 -147.914062 21.71875 -159.1875 22.269531 -159.1875 Z M 22.269531 -159.1875 "/></g></g></g></g></g></g><path stroke-linecap="butt" transform="matrix(0.75, 0, 0, 0.75, 20.334826, 384.539297)" fill="none" stroke-linejoin="miter" d="M 37.631692 12.166354 L 21.746275 12.166354 L 21.746275 4.39552 L 62.168152 4.39552 L 62.168152 12.166354 L 46.225442 12.166354 L 46.225442 62.99969 L 37.631692 62.99969 Z M 76.730652 62.99969 L 68.699402 62.99969 L 68.699402 2.661145 L 76.730652 2.661145 L 76.730652 27.036146 C 78.209819 25.385105 79.761902 24.21323 81.392111 23.52573 C 83.022319 22.83823 84.907736 22.499688 87.063986 22.499688 C 89.808778 22.499688 92.267111 23.036146 94.449403 24.114271 C 96.626487 25.187188 98.485862 26.661146 100.017112 28.530938 C 101.563987 30.40073 102.735862 32.609063 103.532737 35.15073 C 104.33482 37.68198 104.74107 40.379897 104.74107 43.244481 L 104.74107 62.99969 L 96.64732 62.99969 L 96.64732 43.244481 C 96.64732 41.374689 96.386903 39.609064 95.860862 37.958022 C 95.33482 36.301772 94.61607 34.86948 93.704612 33.655938 C 92.798361 32.447605 91.756695 31.499688 90.574403 30.812188 C 89.392111 30.114272 88.105653 29.760105 86.720236 29.760105 C 85.563986 29.760105 84.407736 29.999688 83.246278 30.468438 C 82.090028 30.937188 81.027528 31.697605 80.058777 32.749688 C 79.105652 33.796563 78.308777 35.176772 77.678569 36.885105 C 77.048361 38.593439 76.730652 40.661147 76.730652 43.083022 Z M 131.850447 63.989273 C 128.985863 63.989273 126.298363 63.452815 123.782738 62.37469 C 121.27753 61.296565 119.090029 59.822606 117.220238 57.952815 C 115.350446 56.083023 113.876488 53.885106 112.803571 51.353856 C 111.725446 48.812189 111.188987 46.109064 111.188987 43.244481 C 111.188987 40.379897 111.699404 37.68198 112.720237 35.15073 C 113.746279 32.609063 115.121279 30.40073 116.860863 28.530938 C 118.595238 26.661146 120.62128 25.187188 122.93378 24.114271 C 125.24628 23.036146 127.720238 22.499688 130.360863 22.499688 C 133.063988 22.499688 135.55878 22.968438 137.845239 23.911146 C 140.131697 24.83823 142.116072 26.296563 143.798364 28.291355 C 145.480656 30.265313 146.787948 32.791355 147.715031 35.859064 C 148.657739 38.911147 149.126489 42.556981 149.126489 46.796564 L 119.704613 46.796564 C 120.095238 48.234064 120.699405 49.572606 121.522321 50.812189 C 122.355655 52.046564 123.334821 53.124689 124.46503 54.041356 C 125.595238 54.942398 126.860863 55.640315 128.261905 56.140315 C 129.657738 56.635106 131.131697 56.885106 132.678572 56.885106 C 134.77753 56.885106 136.725447 56.49969 138.511905 55.734065 C 140.303572 54.952814 141.829614 53.931981 143.095239 52.666356 L 148.058781 57.629898 C 146.131697 59.556981 143.777531 61.098648 140.996281 62.254898 C 138.209822 63.411148 135.162947 63.989273 131.850447 63.989273 Z M 130.360863 29.760105 C 129.095238 29.760105 127.897322 30.010105 126.767113 30.510105 C 125.636905 31.004897 124.59003 31.697605 123.62128 32.58823 C 122.662946 33.46323 121.845238 34.504897 121.157738 35.71323 C 120.470238 36.926772 119.959821 38.249689 119.621279 39.692397 L 140.532739 39.692397 C 140.423364 38.374689 140.121281 37.109064 139.62128 35.895522 C 139.126489 34.671563 138.43378 33.609063 137.543155 32.708022 C 136.668155 31.796563 135.642114 31.072605 134.454614 30.551772 C 133.272322 30.02573 131.907738 29.760105 130.360863 29.760105 Z M 194.428575 35.551772 L 173.761907 4.39552 L 184.095241 4.39552 L 198.72545 26.374688 L 213.360868 4.39552 L 223.772326 4.39552 L 203.105659 35.551772 L 203.105659 62.99969 L 194.428575 62.99969 Z M 246.428578 63.989273 C 243.668161 63.989273 241.084827 63.452815 238.678577 62.37469 C 236.282744 61.296565 234.188994 59.822606 232.402535 57.952815 C 230.610868 56.083023 229.194202 53.885106 228.142118 51.353856 C 227.095243 48.812189 226.569202 46.109064 226.569202 43.244481 C 226.569202 40.379897 227.095243 37.68198 228.142118 35.15073 C 229.194202 32.609063 230.610868 30.40073 232.402535 28.530938 C 234.188994 26.661146 236.282744 25.187188 238.678577 24.114271 C 241.084827 23.036146 243.668161 22.499688 246.428578 22.499688 C 249.116078 22.499688 251.673369 23.036146 254.095245 24.114271 C 256.532745 25.187188 258.64212 26.661146 260.433787 28.530938 C 262.220245 30.40073 263.64212 32.609063 264.688995 35.15073 C 265.741078 37.68198 266.261912 40.379897 266.261912 43.244481 C 266.261912 46.109064 265.741078 48.812189 264.688995 51.353856 C 263.64212 53.885106 262.220245 56.083023 260.433787 57.952815 C 258.64212 59.822606 256.532745 61.296565 254.095245 62.37469 C 251.673369 63.452815 249.116078 63.989273 246.428578 63.989273 Z M 246.428578 29.68198 C 244.824411 29.68198 243.303577 30.046563 241.866077 30.770522 C 240.438994 31.484063 239.188994 32.447605 238.110869 33.655938 C 237.037952 34.86948 236.194202 36.301772 235.590035 37.958022 C 234.985869 39.609064 234.683785 41.374689 234.683785 43.244481 C 234.683785 45.114272 234.985869 46.874689 235.590035 48.530939 C 236.194202 50.187189 237.037952 51.629898 238.110869 52.869481 C 239.188994 54.109064 240.438994 55.088231 241.866077 55.817398 C 243.303577 56.53094 244.824411 56.885106 246.428578 56.885106 C 248.011911 56.885106 249.522328 56.53094 250.949411 55.817398 C 252.386911 55.088231 253.631703 54.109064 254.678578 52.869481 C 255.730661 51.629898 256.558786 50.187189 257.162953 48.530939 C 257.76712 46.874689 258.069203 45.114272 258.069203 43.244481 C 258.069203 41.374689 257.76712 39.609064 257.162953 37.958022 C 256.558786 36.301772 255.730661 34.86948 254.678578 33.655938 C 253.631703 32.447605 252.386911 31.484063 250.949411 30.770522 C 249.522328 30.046563 248.011911 29.68198 246.428578 29.68198 Z M 299.058789 59.447606 C 297.688997 60.713231 296.079622 61.760107 294.235872 62.598648 C 292.392122 63.416357 290.340038 63.827815 288.079621 63.827815 C 286.642121 63.827815 285.011913 63.619482 283.199413 63.202815 C 281.381704 62.796565 279.688996 61.989273 278.110871 60.78094 C 276.537954 59.556981 275.215037 57.885106 274.136912 55.775731 C 273.074412 53.650731 272.543162 50.879898 272.543162 47.463231 L 272.543162 23.405938 L 280.131704 23.405938 L 280.131704 47.463231 C 280.131704 49.171564 280.392121 50.614273 280.918163 51.801773 C 281.444204 52.984064 282.126496 53.937189 282.975454 54.666356 C 283.834829 55.379898 284.819204 55.900731 285.923371 56.239273 C 287.027538 56.56219 288.157746 56.723648 289.313996 56.723648 C 290.199413 56.723648 291.20983 56.56219 292.340038 56.239273 C 293.470247 55.900731 294.527538 55.364273 295.506705 54.624689 C 296.501497 53.869481 297.345247 52.916356 298.032747 51.760106 C 298.715038 50.603856 299.058789 49.197606 299.058789 47.541356 L 299.058789 23.405938 L 307.090039 23.405938 L 307.090039 62.99969 L 300.715039 62.99969 Z M 323.938998 62.99969 L 315.928581 62.99969 L 315.928581 23.405938 L 322.303581 23.405938 L 323.938998 26.874688 C 325.272331 25.614271 326.87129 24.567396 328.741082 23.749688 C 330.610873 22.916355 332.647332 22.499688 334.855665 22.499688 C 336.293165 22.499688 337.923374 22.718438 339.741082 23.161146 C 341.553582 23.593438 343.246291 24.421563 344.803582 25.645521 C 346.376499 26.853855 347.704624 28.536146 348.782749 30.692397 C 349.855666 32.827813 350.397333 35.609064 350.397333 39.02573 L 350.397333 62.99969 L 342.787957 62.99969 L 342.787957 38.942397 C 342.787957 37.234064 342.522332 35.791355 342.001499 34.603855 C 341.491082 33.421563 340.803582 32.473647 339.938999 31.760105 C 339.095249 31.036147 338.131707 30.520522 337.053582 30.228855 C 335.980665 29.916355 334.860874 29.760105 333.704624 29.760105 C 332.819207 29.760105 331.80879 29.93198 330.678582 30.265313 C 329.548373 30.603855 328.485873 31.140313 327.491082 31.879897 C 326.506707 32.61948 325.668165 33.55698 324.96504 34.687188 C 324.282748 35.817397 323.938998 37.208022 323.938998 38.864272 Z M 377.834834 61.020523 C 375.090042 61.020523 372.553584 60.510106 370.225459 59.489273 C 367.912959 58.46844 365.902542 57.06219 364.194208 55.270523 C 362.485875 53.478856 361.147333 51.416356 360.178583 49.077814 C 359.22025 46.734064 358.741083 44.239272 358.741083 41.58823 C 358.741083 38.952814 359.22025 36.473647 360.178583 34.161147 C 361.147333 31.833022 362.485875 29.801772 364.194208 28.067396 C 365.902542 26.333021 367.912959 24.973646 370.225459 23.989271 C 372.553584 22.99448 375.090042 22.499688 377.834834 22.499688 C 380.590043 22.499688 382.985876 22.916355 385.017126 23.749688 C 387.064001 24.567396 388.860876 25.754896 390.407751 27.301771 L 392.064002 23.405938 L 398.340043 23.405938 C 398.340043 23.567396 398.340043 23.77573 398.340043 24.030938 C 398.340043 24.27573 398.340043 24.760105 398.340043 25.484063 C 398.340043 26.197605 398.340043 27.21323 398.340043 28.530938 C 398.340043 29.848647 398.340043 31.666355 398.340043 33.978855 C 398.340043 36.296564 398.35046 39.187189 398.376502 42.655939 C 398.402544 46.129897 398.418169 50.348648 398.418169 55.31219 C 398.418169 56.96844 398.366085 58.583023 398.25671 60.15594 C 398.147335 61.713231 397.91296 63.228857 397.548377 64.697607 C 397.199418 66.161148 396.678585 67.567398 395.97546 68.911149 C 395.28796 70.260107 394.371293 71.56219 393.209835 72.827815 C 391.00671 75.140316 388.511918 76.697607 385.72546 77.489274 C 382.954626 78.296566 380.022334 78.702816 376.928584 78.702816 C 374.287959 78.702816 371.793167 78.369482 369.439 77.713232 C 367.100459 77.051774 364.991083 76.171566 363.121292 75.067399 L 363.121292 66.150732 C 364.225458 67.734065 365.949417 69.025732 368.287959 70.020524 C 370.631709 71.020524 373.287959 71.515315 376.261917 71.515315 C 378.251501 71.515315 380.100459 71.254899 381.808793 70.728857 C 383.517126 70.202815 385.006709 69.40594 386.267126 68.327815 C 387.532751 67.24969 388.53796 65.859065 389.277543 64.150732 C 390.027543 62.442398 390.407751 60.40594 390.407751 58.036148 L 390.407751 56.463231 C 389.746293 57.067398 388.933793 57.645523 387.965043 58.197606 C 386.996293 58.74969 385.949418 59.234065 384.819209 59.650731 C 383.689001 60.067398 382.517126 60.40594 381.303584 60.661148 C 380.095251 60.900731 378.939001 61.020523 377.834834 61.020523 Z M 378.579626 29.760105 C 376.980667 29.760105 375.459834 30.072605 374.022334 30.692397 C 372.595251 31.296563 371.34525 32.135105 370.267125 33.21323 C 369.204625 34.27573 368.371292 35.52573 367.761917 36.968439 C 367.15775 38.395522 366.855667 39.93198 366.855667 41.58823 C 366.855667 43.244481 367.15775 44.801772 367.761917 46.270522 C 368.371292 47.723647 369.204625 48.989273 370.267125 50.062189 C 371.34525 51.140314 372.595251 51.994481 374.022334 52.624689 C 375.459834 53.260106 376.980667 53.577814 378.579626 53.577814 C 380.183793 53.577814 381.694209 53.327814 383.121293 52.827814 C 384.558793 52.333023 385.803585 51.593439 386.855668 50.609064 C 387.902543 49.614273 388.730668 48.374689 389.334835 46.895522 C 389.94421 45.400731 390.246293 43.635106 390.246293 41.58823 C 390.246293 39.437189 389.94421 37.603855 389.334835 36.098647 C 388.730668 34.577813 387.902543 33.353855 386.855668 32.426772 C 385.803585 31.484063 384.558793 30.80698 383.121293 30.390313 C 381.694209 29.968438 380.183793 29.760105 378.579626 29.760105 Z M 466.944214 23.405938 L 466.944214 62.99969 L 460.162963 62.99969 L 458.933797 58.458023 C 457.54838 60.275731 455.777546 61.65594 453.626505 62.598648 C 451.48588 63.525732 449.314004 63.989273 447.105671 63.989273 C 444.350462 63.989273 441.772337 63.452815 439.376504 62.37469 C 436.985879 61.296565 434.892129 59.822606 433.100462 57.952815 C 431.314003 56.083023 429.892128 53.885106 428.845253 51.353856 C 427.79317 48.812189 427.272337 46.109064 427.272337 43.244481 C 427.272337 40.379897 427.79317 37.68198 428.845253 35.15073 C 429.892128 32.609063 431.314003 30.40073 433.100462 28.530938 C 434.892129 26.661146 436.985879 25.187188 439.376504 24.114271 C 441.772337 23.036146 444.350462 22.499688 447.105671 22.499688 C 449.314004 22.499688 451.433796 22.926771 453.465046 23.791355 C 455.511921 24.635105 457.334838 25.968438 458.933797 27.786146 L 460.162963 23.405938 Z M 447.105671 56.885106 C 448.709838 56.885106 450.220254 56.53094 451.647338 55.817398 C 453.090046 55.088231 454.324421 54.109064 455.36088 52.869481 C 456.412963 51.629898 457.23588 50.187189 457.845255 48.530939 C 458.449422 46.874689 458.751505 45.114272 458.751505 43.244481 C 458.751505 41.374689 458.449422 39.609064 457.845255 37.958022 C 457.23588 36.301772 456.412963 34.853855 455.36088 33.61948 C 454.324421 32.379897 453.090046 31.405938 451.647338 30.692397 C 450.220254 29.96323 448.709838 29.598647 447.105671 29.598647 C 445.506713 29.598647 443.985879 29.96323 442.548379 30.692397 C 441.121296 31.405938 439.881712 32.379897 438.834837 33.61948 C 437.782754 34.853855 436.954629 36.301772 436.350462 37.958022 C 435.746295 39.609064 435.444212 41.374689 435.444212 43.244481 C 435.444212 45.114272 435.746295 46.874689 436.350462 48.530939 C 436.954629 50.187189 437.782754 51.629898 438.834837 52.869481 C 439.881712 54.109064 441.121296 55.088231 442.548379 55.817398 C 443.985879 56.53094 445.506713 56.885106 447.105671 56.885106 Z M 482.553589 62.99969 L 474.543172 62.99969 L 474.543172 23.405938 L 480.918173 23.405938 L 482.553589 26.874688 C 483.886923 25.614271 485.485881 24.567396 487.355673 23.749688 C 489.230673 22.916355 491.267132 22.499688 493.470257 22.499688 C 494.912965 22.499688 496.537965 22.718438 498.355674 23.161146 C 500.173382 23.593438 501.860882 24.421563 503.423382 25.645521 C 504.996299 26.853855 506.319216 28.536146 507.397341 30.692397 C 508.475466 32.827813 509.011924 35.609064 509.011924 39.02573 L 509.011924 62.99969 L 501.402549 62.99969 L 501.402549 38.942397 C 501.402549 37.234064 501.142132 35.791355 500.61609 34.603855 C 500.105674 33.421563 499.418174 32.473647 498.558799 31.760105 C 497.70984 31.036147 496.746298 30.520522 495.673382 30.228855 C 494.595257 29.916355 493.480673 29.760105 492.324423 29.760105 C 491.433798 29.760105 490.423381 29.93198 489.293173 30.265313 C 488.162965 30.603855 487.100465 31.140313 486.105673 31.879897 C 485.126506 32.61948 484.282756 33.55698 483.584839 34.687188 C 482.897339 35.817397 482.553589 37.208022 482.553589 38.864272 Z M 556.287968 2.661145 L 556.287968 62.99969 L 549.933801 62.99969 L 548.277551 58.864273 C 546.673384 60.463231 544.850468 61.723648 542.808801 62.635107 C 540.777551 63.536148 538.444217 63.989273 535.803592 63.989273 C 533.048384 63.989273 530.511925 63.452815 528.199425 62.37469 C 525.881717 61.296565 523.8713 59.822606 522.162966 57.952815 C 520.454633 56.083023 519.116091 53.885106 518.147341 51.353856 C 517.178591 48.812189 516.694216 46.109064 516.694216 43.244481 C 516.694216 40.379897 517.178591 37.68198 518.147341 35.15073 C 519.116091 32.609063 520.454633 30.40073 522.162966 28.530938 C 523.8713 26.661146 525.881717 25.187188 528.199425 24.114271 C 530.511925 23.036146 533.048384 22.499688 535.803592 22.499688 C 538.548384 22.499688 540.939009 22.952813 542.970259 23.86948 C 545.011926 24.770521 546.782759 26.051771 548.277551 27.702813 L 548.277551 2.661145 Z M 536.449425 56.885106 C 538.105676 56.885106 539.631717 56.609065 541.032759 56.056981 C 542.444217 55.504898 543.689009 54.666356 544.767134 53.536148 C 545.840051 52.405939 546.683801 50.984064 547.287968 49.275731 C 547.892134 47.567397 548.194218 45.556981 548.194218 43.244481 C 548.194218 40.765314 547.892134 38.676772 547.287968 36.968439 C 546.683801 35.260105 545.840051 33.864272 544.767134 32.791355 C 543.689009 31.71323 542.444217 30.937188 541.032759 30.468438 C 539.631717 29.999688 538.105676 29.760105 536.449425 29.760105 C 534.866092 29.760105 533.350467 30.114272 531.912967 30.812188 C 530.485883 31.499688 529.2463 32.447605 528.199425 33.655938 C 527.147342 34.86948 526.319217 36.301772 525.71505 37.958022 C 525.110883 39.609064 524.8088 41.374689 524.8088 43.244481 C 524.8088 45.114272 525.110883 46.874689 525.71505 48.530939 C 526.319217 50.187189 527.147342 51.629898 528.199425 52.869481 C 529.2463 54.109064 530.485883 55.088231 531.912967 55.817398 C 533.350467 56.53094 534.866092 56.885106 536.449425 56.885106 Z M 608.527554 62.921565 C 606.267137 63.68719 604.032762 64.150732 601.824429 64.31219 C 599.63172 64.484065 597.657762 64.171565 595.892137 63.364273 C 594.13172 62.567398 592.699428 61.171565 591.595262 59.166356 C 590.491095 57.145523 589.939011 54.322606 589.939011 50.692398 L 589.939011 30.58823 L 584.147345 30.58823 L 584.147345 25.062188 L 589.939011 23.405938 L 589.939011 12.833021 L 597.949429 12.833021 L 597.949429 23.405938 L 608.709846 23.405938 L 608.709846 30.58823 L 597.949429 30.58823 L 597.949429 51.921564 C 597.949429 53.239273 598.10047 54.286148 598.397345 55.067398 C 598.704637 55.838231 599.215054 56.416356 599.928595 56.806981 C 600.657762 57.181981 601.60047 57.369481 602.75672 57.369481 C 603.912971 57.369481 605.319221 57.260106 606.970262 57.046565 Z M 622.923388 62.99969 L 614.886929 62.99969 L 614.886929 2.661145 L 622.923388 2.661145 L 622.923388 27.036146 C 624.402555 25.385105 625.954638 24.21323 627.584847 23.52573 C 629.209847 22.83823 631.100472 22.499688 633.251514 22.499688 C 635.996305 22.499688 638.459847 23.036146 640.642139 24.114271 C 642.819222 25.187188 644.673389 26.661146 646.209848 28.530938 C 647.756723 30.40073 648.928598 32.609063 649.720264 35.15073 C 650.527556 37.68198 650.933806 40.379897 650.933806 43.244481 L 650.933806 62.99969 L 642.840056 62.99969 L 642.840056 43.244481 C 642.840056 41.374689 642.579639 39.609064 642.053597 37.958022 C 641.527556 36.301772 640.808806 34.86948 639.892139 33.655938 C 638.991097 32.447605 637.949431 31.499688 636.767139 30.812188 C 635.579639 30.114272 634.298389 29.760105 632.912972 29.760105 C 631.751514 29.760105 630.595264 29.999688 629.439013 30.468438 C 628.282763 30.937188 627.220263 31.697605 626.251513 32.749688 C 625.29318 33.796563 624.501513 35.176772 623.871305 36.885105 C 623.235888 38.593439 622.923388 40.661147 622.923388 43.083022 Z M 678.043183 63.989273 C 675.178599 63.989273 672.485891 63.452815 669.970265 62.37469 C 667.470265 61.296565 665.282765 59.822606 663.412973 57.952815 C 661.543182 56.083023 660.069223 53.885106 658.991098 51.353856 C 657.918182 48.812189 657.376515 46.109064 657.376515 43.244481 C 657.376515 40.379897 657.89214 37.68198 658.912973 35.15073 C 659.933807 32.609063 661.314015 30.40073 663.04839 28.530938 C 664.782765 26.661146 666.808807 25.187188 669.121307 24.114271 C 671.439016 23.036146 673.912974 22.499688 676.548391 22.499688 C 679.256724 22.499688 681.751516 22.968438 684.037975 23.911146 C 686.324433 24.83823 688.308808 26.296563 689.9911 28.291355 C 691.673392 30.265313 692.975475 32.791355 693.907767 35.859064 C 694.845267 38.911147 695.319225 42.556981 695.319225 46.796564 L 665.897349 46.796564 C 666.282765 48.234064 666.89214 49.572606 667.709849 50.812189 C 668.543182 52.046564 669.527557 53.124689 670.657766 54.041356 C 671.787974 54.942398 673.053599 55.640315 674.449432 56.140315 C 675.850474 56.635106 677.324433 56.885106 678.871308 56.885106 C 680.970266 56.885106 682.912974 56.49969 684.704641 55.734065 C 686.4911 54.952814 688.017141 53.931981 689.282766 52.666356 L 694.246308 57.629898 C 692.324433 59.556981 689.970267 61.098648 687.183808 62.254898 C 684.402558 63.411148 681.355683 63.989273 678.043183 63.989273 Z M 676.548391 29.760105 C 675.287974 29.760105 674.090057 30.010105 672.959849 30.510105 C 671.829641 31.004897 670.777557 31.697605 669.808807 32.58823 C 668.855682 33.46323 668.032765 34.504897 667.345265 35.71323 C 666.662974 36.926772 666.152557 38.249689 665.814015 39.692397 L 686.720266 39.692397 C 686.6161 38.374689 686.308808 37.109064 685.814016 35.895522 C 685.314016 34.671563 684.621308 33.609063 683.735891 32.708022 C 682.860891 31.796563 681.829641 31.072605 680.647349 30.551772 C 679.465058 30.02573 678.095266 29.760105 676.548391 29.760105 Z M 772.204646 62.99969 L 761.366103 62.99969 L 742.939019 37.71323 L 732.689019 37.71323 L 732.689019 62.99969 L 724.011935 62.99969 L 724.011935 4.39552 L 747.803603 4.39552 C 750.116103 4.39552 752.303603 4.838229 754.360895 5.728854 C 756.433812 6.603854 758.230687 7.786145 759.75152 9.280937 C 761.272353 10.760104 762.47027 12.510104 763.34527 14.525729 C 764.230687 16.530938 764.673395 18.692396 764.673395 21.004896 C 764.673395 22.942396 764.371312 24.765313 763.767145 26.473646 C 763.162979 28.18198 762.319228 29.723647 761.246312 31.093438 C 760.168187 32.468438 758.881728 33.666355 757.392145 34.687188 C 755.912978 35.708022 754.287978 36.468439 752.527561 36.968439 Z M 747.803603 29.598647 C 748.959853 29.598647 750.06402 29.374688 751.116103 28.916355 C 752.162978 28.442396 753.058811 27.822605 753.798395 27.05698 C 754.537978 26.27573 755.131728 25.348646 755.574436 24.27573 C 756.017145 23.197605 756.241103 22.051771 756.241103 20.843438 C 756.241103 19.629896 756.017145 18.499688 755.574436 17.452813 C 755.131728 16.400729 754.537978 15.478854 753.798395 14.687187 C 753.058811 13.895521 752.162978 13.260104 751.116103 12.791354 C 750.06402 12.317396 748.959853 12.083021 747.803603 12.083021 L 732.689019 12.083021 L 732.689019 29.68198 Z M 796.407772 63.989273 C 793.543188 63.989273 790.85048 63.452815 788.334855 62.37469 C 785.834855 61.296565 783.647355 59.822606 781.777563 57.952815 C 779.907771 56.083023 778.433813 53.885106 777.355688 51.353856 C 776.277563 48.812189 775.741104 46.109064 775.741104 43.244481 C 775.741104 40.379897 776.251521 37.68198 777.277563 35.15073 C 778.298396 32.609063 779.678604 30.40073 781.412979 28.530938 C 783.147355 26.661146 785.173396 25.187188 787.485896 24.114271 C 789.803605 23.036146 792.277563 22.499688 794.91298 22.499688 C 797.616105 22.499688 800.110897 22.968438 802.402564 23.911146 C 804.689022 24.83823 806.673397 26.296563 808.355689 28.291355 C 810.037981 30.265313 811.340064 32.791355 812.267148 35.859064 C 813.209856 38.911147 813.683814 42.556981 813.683814 46.796564 L 784.25673 46.796564 C 784.647355 48.234064 785.251521 49.572606 786.074438 50.812189 C 786.907771 52.046564 787.892146 53.124689 789.022355 54.041356 C 790.152563 54.942398 791.418188 55.640315 792.814022 56.140315 C 794.215063 56.635106 795.689022 56.885106 797.235897 56.885106 C 799.334855 56.885106 801.277564 56.49969 803.064022 55.734065 C 804.855689 54.952814 806.381731 53.931981 807.647356 52.666356 L 812.610898 57.629898 C 810.689023 59.556981 808.334856 61.098648 805.548397 62.254898 C 802.761939 63.411148 799.715064 63.989273 796.407772 63.989273 Z M 794.91298 29.760105 C 793.647355 29.760105 792.449438 30.010105 791.31923 30.510105 C 790.189022 31.004897 789.142146 31.697605 788.173396 32.58823 C 787.220271 33.46323 786.397355 34.504897 785.709855 35.71323 C 785.027563 36.926772 784.511938 38.249689 784.178605 39.692397 L 805.084856 39.692397 C 804.975481 38.374689 804.673397 37.109064 804.178606 35.895522 C 803.678606 34.671563 802.985897 33.609063 802.10048 32.708022 C 801.22548 31.796563 800.19423 31.072605 799.011939 30.551772 C 797.824439 30.02573 796.459855 29.760105 794.91298 29.760105 Z M 839.480691 54.723648 C 839.975482 54.296564 840.412982 53.801773 840.787982 53.254898 C 841.178607 52.702814 841.376524 52.062189 841.376524 51.333023 C 841.376524 50.463231 841.058816 49.723648 840.428607 49.114273 C 839.793191 48.510106 839.022357 47.999689 838.105691 47.583022 C 837.204649 47.166356 836.256732 46.848647 835.26194 46.635106 C 834.267149 46.416356 833.439024 46.223647 832.777565 46.046564 C 830.959857 45.619481 829.251524 45.088231 827.652565 44.452814 C 826.053607 43.806981 824.657773 43.036147 823.475482 42.135106 C 822.29319 41.218439 821.35569 40.140314 820.66819 38.905939 C 819.985898 37.666355 819.642148 36.192397 819.642148 34.484063 C 819.642148 32.885105 820.022356 31.385105 820.79319 29.984063 C 821.558815 28.572605 822.584857 27.327813 823.876523 26.249688 C 825.183815 25.176771 826.704648 24.322605 828.439023 23.687188 C 830.173399 23.05698 832.006732 22.739271 833.928607 22.739271 C 835.63694 22.739271 837.267149 22.989271 838.814024 23.484063 C 840.360899 23.984063 841.751524 24.661146 842.991108 25.52573 C 844.225483 26.374688 845.272358 27.40073 846.116108 28.614272 C 846.980691 29.822605 847.543191 31.176772 847.814024 32.666355 L 840.626524 34.405938 C 840.303607 33.072605 839.595274 31.968438 838.491107 31.093438 C 837.386941 30.208022 835.866107 29.760105 833.928607 29.760105 C 833.267149 29.760105 832.584857 29.864272 831.871315 30.067397 C 831.157774 30.254897 830.496315 30.541355 829.892149 30.93198 C 829.287982 31.312188 828.777565 31.77573 828.360898 32.327813 C 827.944232 32.874688 827.735898 33.515313 827.735898 34.24448 C 827.735898 35.010105 827.970273 35.666355 828.439023 36.218439 C 828.912982 36.770522 829.475482 37.228855 830.13694 37.593439 C 830.79319 37.942397 831.506732 38.234064 832.272357 38.458022 C 833.053607 38.676772 833.772357 38.864272 834.433815 39.02573 C 837.350482 39.739272 839.772357 40.510105 841.699441 41.348647 C 843.636941 42.166356 845.183816 43.072606 846.340066 44.072606 C 847.496316 45.067397 848.303608 46.155939 848.761941 47.338231 C 849.230691 48.525731 849.470275 49.853856 849.470275 51.333023 C 849.470275 53.109064 849.069233 54.770523 848.277566 56.322606 C 847.485899 57.853856 846.381733 59.18719 844.965066 60.317398 C 843.569233 61.447606 841.886941 62.327815 839.923399 62.958023 C 837.970274 63.59344 835.866107 63.90594 833.60569 63.90594 C 830.189024 63.90594 827.142148 63.067398 824.465065 61.385106 C 821.798398 59.702815 819.996315 57.458023 819.053606 54.645523 L 825.834857 51.598648 C 826.709857 53.520523 827.834857 54.833023 829.204649 55.53094 C 830.590065 56.21844 832.16819 56.56219 833.928607 56.56219 C 836.136941 56.56219 837.985899 55.952815 839.480691 54.723648 Z M 877.652568 62.921565 C 875.392151 63.68719 873.162984 64.150732 870.954651 64.31219 C 868.761942 64.484065 866.782775 64.171565 865.022359 63.364273 C 863.256734 62.567398 861.824442 61.171565 860.725483 59.166356 C 859.621317 57.145523 859.069233 54.322606 859.069233 50.692398 L 859.069233 30.58823 L 853.277566 30.58823 L 853.277566 25.062188 L 859.069233 23.405938 L 859.069233 12.833021 L 867.07965 12.833021 L 867.07965 23.405938 L 877.834859 23.405938 L 877.834859 30.58823 L 867.07965 30.58823 L 867.07965 51.921564 C 867.07965 53.239273 867.225484 54.286148 867.522359 55.067398 C 867.834859 55.838231 868.345275 56.416356 869.058817 56.806981 C 869.782776 57.181981 870.725484 57.369481 871.881734 57.369481 C 873.037984 57.369481 874.444234 57.260106 876.100484 57.046565 Z M 892.454652 2.661145 L 892.454652 62.99969 L 884.439026 62.99969 L 884.439026 2.661145 Z M 919.897361 63.989273 C 917.02757 63.989273 914.340069 63.452815 911.824444 62.37469 C 909.319236 61.296565 907.131736 59.822606 905.261944 57.952815 C 903.392152 56.083023 901.918194 53.885106 900.845277 51.353856 C 899.767152 48.812189 899.230694 46.109064 899.230694 43.244481 C 899.230694 40.379897 899.74111 37.68198 900.761944 35.15073 C 901.787985 32.609063 903.162986 30.40073 904.902569 28.530938 C 906.636944 26.661146 908.662986 25.187188 910.975486 24.114271 C 913.287986 23.036146 915.767153 22.499688 918.40257 22.499688 C 921.105695 22.499688 923.600487 22.968438 925.886945 23.911146 C 928.173403 24.83823 930.157779 26.296563 931.84007 28.291355 C 933.522362 30.265313 934.829654 32.791355 935.756737 35.859064 C 936.699446 38.911147 937.168196 42.556981 937.168196 46.796564 L 907.746319 46.796564 C 908.136944 48.234064 908.741111 49.572606 909.564028 50.812189 C 910.397361 52.046564 911.376528 53.124689 912.506736 54.041356 C 913.636944 54.942398 914.902569 55.640315 916.303611 56.140315 C 917.699445 56.635106 919.173403 56.885106 920.720278 56.885106 C 922.819237 56.885106 924.767153 56.49969 926.553612 55.734065 C 928.345278 54.952814 929.87132 53.931981 931.136945 52.666356 L 936.100487 57.629898 C 934.178612 59.556981 931.819237 61.098648 929.037987 62.254898 C 926.251528 63.411148 923.204653 63.989273 919.897361 63.989273 Z M 918.40257 29.760105 C 917.136945 29.760105 915.939028 30.010105 914.808819 30.510105 C 913.678611 31.004897 912.631736 31.697605 911.662986 32.58823 C 910.704653 33.46323 909.886944 34.504897 909.199444 35.71323 C 908.511944 36.926772 908.001527 38.249689 907.662986 39.692397 L 928.574445 39.692397 C 928.46507 38.374689 928.162987 37.109064 927.662987 35.895522 C 927.168195 34.671563 926.475487 33.609063 925.584862 32.708022 C 924.709862 31.796563 923.68382 31.072605 922.49632 30.551772 C 921.314028 30.02573 919.949445 29.760105 918.40257 29.760105 Z M 962.965072 54.723648 C 963.465072 54.296564 963.902572 53.801773 964.277572 53.254898 C 964.668197 52.702814 964.860905 52.062189 964.860905 51.333023 C 964.860905 50.463231 964.548405 49.723648 963.912989 49.114273 C 963.28278 48.510106 962.506739 47.999689 961.59528 47.583022 C 960.694238 47.166356 959.746322 46.848647 958.746322 46.635106 C 957.75153 46.416356 956.923405 46.223647 956.267155 46.046564 C 954.449446 45.619481 952.741113 45.088231 951.142155 44.452814 C 949.537988 43.806981 948.147363 43.036147 946.965071 42.135106 C 945.777571 41.218439 944.845279 40.140314 944.157779 38.905939 C 943.470279 37.666355 943.126529 36.192397 943.126529 34.484063 C 943.126529 32.885105 943.511946 31.385105 944.277571 29.984063 C 945.048404 28.572605 946.074446 27.327813 947.366113 26.249688 C 948.673405 25.176771 950.194238 24.322605 951.928613 23.687188 C 953.662988 23.05698 955.491113 22.739271 957.418197 22.739271 C 959.12653 22.739271 960.75153 22.989271 962.298405 23.484063 C 963.84528 23.984063 965.241114 24.661146 966.475489 25.52573 C 967.715072 26.374688 968.756739 27.40073 969.605697 28.614272 C 970.465072 29.822605 971.032781 31.176772 971.303614 32.666355 L 964.116114 34.405938 C 963.793197 33.072605 963.079655 31.968438 961.975489 31.093438 C 960.87653 30.208022 959.355697 29.760105 957.418197 29.760105 C 956.756738 29.760105 956.069238 29.864272 955.360905 30.067397 C 954.647363 30.254897 953.985905 30.541355 953.381738 30.93198 C 952.777571 31.312188 952.261946 31.77573 951.84528 32.327813 C 951.428613 32.874688 951.22028 33.515313 951.22028 34.24448 C 951.22028 35.010105 951.454655 35.666355 951.928613 36.218439 C 952.397363 36.770522 952.965071 37.228855 953.621321 37.593439 C 954.28278 37.942397 954.996322 38.234064 955.761947 38.458022 C 956.543197 38.676772 957.261947 38.864272 957.923405 39.02573 C 960.840072 39.739272 963.261947 40.510105 965.183822 41.348647 C 967.121322 42.166356 968.673406 43.072606 969.829656 44.072606 C 970.985906 45.067397 971.793197 46.155939 972.251531 47.338231 C 972.720281 48.525731 972.954656 49.853856 972.954656 51.333023 C 972.954656 53.109064 972.558822 54.770523 971.767156 56.322606 C 970.970281 57.853856 969.866114 59.18719 968.454656 60.317398 C 967.058822 61.447606 965.37653 62.327815 963.412989 62.958023 C 961.459863 63.59344 959.355697 63.90594 957.09528 63.90594 C 953.678613 63.90594 950.631738 63.067398 947.949446 61.385106 C 945.287988 59.702815 943.485904 57.458023 942.543196 54.645523 L 949.324446 51.598648 C 950.199446 53.520523 951.324446 54.833023 952.694238 55.53094 C 954.079655 56.21844 955.652572 56.56219 957.418197 56.56219 C 959.621322 56.56219 961.475488 55.952815 962.965072 54.723648 Z M 998.095282 54.723648 C 998.595282 54.296564 999.032782 53.801773 999.407782 53.254898 C 999.798407 52.702814 999.991115 52.062189 999.991115 51.333023 C 999.991115 50.463231 999.678615 49.723648 999.043199 49.114273 C 998.41299 48.510106 997.636949 47.999689 996.72549 47.583022 C 995.81924 47.166356 994.871324 46.848647 993.876532 46.635106 C 992.88174 46.416356 992.053615 46.223647 991.397365 46.046564 C 989.579657 45.619481 987.871323 45.088231 986.267156 44.452814 C 984.668198 43.806981 983.277573 43.036147 982.090073 42.135106 C 980.907781 41.218439 979.975489 40.140314 979.287989 38.905939 C 978.600489 37.666355 978.256739 36.192397 978.256739 34.484063 C 978.256739 32.885105 978.642156 31.385105 979.407781 29.984063 C 980.173406 28.572605 981.204656 27.327813 982.496323 26.249688 C 983.798406 25.176771 985.31924 24.322605 987.058823 23.687188 C 988.793198 23.05698 990.621323 22.739271 992.543198 22.739271 C 994.25674 22.739271 995.88174 22.989271 997.428615 23.484063 C 998.97549 23.984063 1000.371324 24.661146 1001.605699 25.52573 C 1002.845282 26.374688 1003.886949 27.40073 1004.735907 28.614272 C 1005.595282 29.822605 1006.162991 31.176772 1006.428616 32.666355 L 999.246324 34.405938 C 998.923407 33.072605 998.209865 31.968438 997.105699 31.093438 C 996.001532 30.208022 994.480698 29.760105 992.543198 29.760105 C 991.886948 29.760105 991.199448 29.864272 990.485907 30.067397 C 989.772365 30.254897 989.116115 30.541355 988.511948 30.93198 C 987.902573 31.312188 987.392156 31.77573 986.97549 32.327813 C 986.558823 32.874688 986.35049 33.515313 986.35049 34.24448 C 986.35049 35.010105 986.584865 35.666355 987.058823 36.218439 C 987.527573 36.770522 988.090073 37.228855 988.751532 37.593439 C 989.41299 37.942397 990.121323 38.234064 990.892157 38.458022 C 991.673407 38.676772 992.392157 38.864272 993.048407 39.02573 C 995.970282 39.739272 998.392157 40.510105 1000.314032 41.348647 C 1002.251532 42.166356 1003.798407 43.072606 1004.954657 44.072606 C 1006.116116 45.067397 1006.923407 46.155939 1007.376532 47.338231 C 1007.850491 48.525731 1008.084866 49.853856 1008.084866 51.333023 C 1008.084866 53.109064 1007.689032 54.770523 1006.892157 56.322606 C 1006.100491 57.853856 1004.996324 59.18719 1003.584866 60.317398 C 1002.183824 61.447606 1000.501532 62.327815 998.53799 62.958023 C 996.590074 63.59344 994.480698 63.90594 992.220282 63.90594 C 988.803615 63.90594 985.75674 63.067398 983.079656 61.385106 C 980.418198 59.702815 978.616114 57.458023 977.673406 54.645523 L 984.454656 51.598648 C 985.329656 53.520523 986.449448 54.833023 987.824448 55.53094 C 989.209865 56.21844 990.782782 56.56219 992.543198 56.56219 C 994.751532 56.56219 996.60049 55.952815 998.095282 54.723648 Z M 998.095282 54.723648 " stroke="#fefefe" stroke-width="5.115002" stroke-opacity="1" stroke-miterlimit="4"/><g fill="#000000" fill-opacity="1"><g transform="translate(38.466388, 430.819218)"><g><path d="M 12.015625 -37.515625 L 0.3125 -37.515625 L 0.3125 -43.25 L 30.140625 -43.25 L 30.140625 -37.515625 L 18.359375 -37.515625 L 18.359375 0 L 12.015625 0 Z M 12.015625 -37.515625 "/></g></g></g><g fill="#000000" fill-opacity="1"><g transform="translate(70.306357, 430.819218)"><g><path d="M 9.328125 0 L 3.421875 0 L 3.421875 -44.53125 L 9.328125 -44.53125 L 9.328125 -26.53125 C 10.429688 -27.75 11.582031 -28.613281 12.78125 -29.125 C 13.976562 -29.632812 15.367188 -29.890625 16.953125 -29.890625 C 18.992188 -29.890625 20.816406 -29.492188 22.421875 -28.703125 C 24.023438 -27.910156 25.394531 -26.820312 26.53125 -25.4375 C 27.675781 -24.050781 28.539062 -22.421875 29.125 -20.546875 C 29.71875 -18.679688 30.015625 -16.691406 30.015625 -14.578125 L 30.015625 0 L 24.03125 0 L 24.03125 -14.578125 C 24.03125 -15.960938 23.835938 -17.265625 23.453125 -18.484375 C 23.066406 -19.703125 22.535156 -20.757812 21.859375 -21.65625 C 21.191406 -22.550781 20.421875 -23.25 19.546875 -23.75 C 18.671875 -24.257812 17.726562 -24.515625 16.71875 -24.515625 C 15.863281 -24.515625 15.007812 -24.34375 14.15625 -24 C 13.300781 -23.65625 12.515625 -23.097656 11.796875 -22.328125 C 11.085938 -21.554688 10.5 -20.539062 10.03125 -19.28125 C 9.5625 -18.019531 9.328125 -16.492188 9.328125 -14.703125 Z M 9.328125 0 "/></g></g></g><g fill="#000000" fill-opacity="1"><g transform="translate(103.366254, 430.819218)"><g><path d="M 17.265625 0.734375 C 15.148438 0.734375 13.164062 0.335938 11.3125 -0.453125 C 9.46875 -1.242188 7.851562 -2.332031 6.46875 -3.71875 C 5.082031 -5.101562 3.992188 -6.726562 3.203125 -8.59375 C 2.410156 -10.46875 2.015625 -12.460938 2.015625 -14.578125 C 2.015625 -16.691406 2.390625 -18.679688 3.140625 -20.546875 C 3.890625 -22.421875 4.90625 -24.050781 6.1875 -25.4375 C 7.46875 -26.820312 8.960938 -27.910156 10.671875 -28.703125 C 12.378906 -29.492188 14.210938 -29.890625 16.171875 -29.890625 C 18.160156 -29.890625 20 -29.539062 21.6875 -28.84375 C 23.375 -28.15625 24.835938 -27.078125 26.078125 -25.609375 C 27.316406 -24.148438 28.28125 -22.289062 28.96875 -20.03125 C 29.664062 -17.78125 30.015625 -15.085938 30.015625 -11.953125 L 8.296875 -11.953125 C 8.578125 -10.898438 9.019531 -9.914062 9.625 -9 C 10.238281 -8.082031 10.960938 -7.285156 11.796875 -6.609375 C 12.628906 -5.941406 13.566406 -5.425781 14.609375 -5.0625 C 15.648438 -4.695312 16.738281 -4.515625 17.875 -4.515625 C 19.414062 -4.515625 20.847656 -4.796875 22.171875 -5.359375 C 23.492188 -5.929688 24.625 -6.6875 25.5625 -7.625 L 29.21875 -3.96875 C 27.789062 -2.539062 26.050781 -1.398438 24 -0.546875 C 21.945312 0.304688 19.703125 0.734375 17.265625 0.734375 Z M 16.171875 -24.515625 C 15.234375 -24.515625 14.347656 -24.332031 13.515625 -23.96875 C 12.679688 -23.601562 11.90625 -23.09375 11.1875 -22.4375 C 10.476562 -21.789062 9.867188 -21.019531 9.359375 -20.125 C 8.847656 -19.226562 8.472656 -18.253906 8.234375 -17.203125 L 23.671875 -17.203125 C 23.585938 -18.179688 23.363281 -19.113281 23 -20 C 22.632812 -20.894531 22.125 -21.675781 21.46875 -22.34375 C 20.820312 -23.019531 20.0625 -23.550781 19.1875 -23.9375 C 18.3125 -24.320312 17.304688 -24.515625 16.171875 -24.515625 Z M 16.171875 -24.515625 "/></g></g></g><g fill="#000000" fill-opacity="1"><g transform="translate(135.694198, 430.819218)"><g/></g></g><g fill="#000000" fill-opacity="1"><g transform="translate(151.614188, 430.819218)"><g><path d="M 15.796875 -20.25 L 0.546875 -43.25 L 8.171875 -43.25 L 18.96875 -27.015625 L 29.765625 -43.25 L 37.453125 -43.25 L 22.203125 -20.25 L 22.203125 0 L 15.796875 0 Z M 15.796875 -20.25 "/></g></g></g><g fill="#000000" fill-opacity="1"><g transform="translate(189.85875, 430.819218)"><g><path d="M 16.21875 0.734375 C 14.1875 0.734375 12.285156 0.335938 10.515625 -0.453125 C 8.753906 -1.242188 7.210938 -2.332031 5.890625 -3.71875 C 4.566406 -5.101562 3.519531 -6.726562 2.75 -8.59375 C 1.976562 -10.46875 1.59375 -12.460938 1.59375 -14.578125 C 1.59375 -16.691406 1.976562 -18.679688 2.75 -20.546875 C 3.519531 -22.421875 4.566406 -24.050781 5.890625 -25.4375 C 7.210938 -26.820312 8.753906 -27.910156 10.515625 -28.703125 C 12.285156 -29.492188 14.1875 -29.890625 16.21875 -29.890625 C 18.21875 -29.890625 20.109375 -29.492188 21.890625 -28.703125 C 23.679688 -27.910156 25.238281 -26.820312 26.5625 -25.4375 C 27.882812 -24.050781 28.929688 -22.421875 29.703125 -20.546875 C 30.472656 -18.679688 30.859375 -16.691406 30.859375 -14.578125 C 30.859375 -12.460938 30.472656 -10.46875 29.703125 -8.59375 C 28.929688 -6.726562 27.882812 -5.101562 26.5625 -3.71875 C 25.238281 -2.332031 23.679688 -1.242188 21.890625 -0.453125 C 20.109375 0.335938 18.21875 0.734375 16.21875 0.734375 Z M 16.21875 -24.578125 C 15.039062 -24.578125 13.921875 -24.3125 12.859375 -23.78125 C 11.804688 -23.257812 10.882812 -22.550781 10.09375 -21.65625 C 9.300781 -20.757812 8.679688 -19.703125 8.234375 -18.484375 C 7.785156 -17.265625 7.5625 -15.960938 7.5625 -14.578125 C 7.5625 -13.191406 7.785156 -11.890625 8.234375 -10.671875 C 8.679688 -9.453125 9.300781 -8.382812 10.09375 -7.46875 C 10.882812 -6.550781 11.804688 -5.828125 12.859375 -5.296875 C 13.921875 -4.773438 15.039062 -4.515625 16.21875 -4.515625 C 17.40625 -4.515625 18.523438 -4.773438 19.578125 -5.296875 C 20.640625 -5.828125 21.554688 -6.550781 22.328125 -7.46875 C 23.097656 -8.382812 23.707031 -9.453125 24.15625 -10.671875 C 24.601562 -11.890625 24.828125 -13.191406 24.828125 -14.578125 C 24.828125 -15.960938 24.601562 -17.265625 24.15625 -18.484375 C 23.707031 -19.703125 23.097656 -20.757812 22.328125 -21.65625 C 21.554688 -22.550781 20.640625 -23.257812 19.578125 -23.78125 C 18.523438 -24.3125 17.40625 -24.578125 16.21875 -24.578125 Z M 16.21875 -24.578125 "/></g></g></g><g fill="#000000" fill-opacity="1"><g transform="translate(222.0647, 430.819218)"><g><path d="M 23.1875 -2.625 C 22.164062 -1.6875 20.972656 -0.910156 19.609375 -0.296875 C 18.242188 0.304688 16.726562 0.609375 15.0625 0.609375 C 14.007812 0.609375 12.8125 0.453125 11.46875 0.140625 C 10.125 -0.160156 8.875 -0.753906 7.71875 -1.640625 C 6.5625 -2.535156 5.582031 -3.765625 4.78125 -5.328125 C 3.988281 -6.898438 3.59375 -8.945312 3.59375 -11.46875 L 3.59375 -29.21875 L 9.21875 -29.21875 L 9.21875 -11.46875 C 9.21875 -10.207031 9.410156 -9.140625 9.796875 -8.265625 C 10.179688 -7.390625 10.6875 -6.6875 11.3125 -6.15625 C 11.945312 -5.632812 12.671875 -5.25 13.484375 -5 C 14.296875 -4.757812 15.128906 -4.640625 15.984375 -4.640625 C 16.628906 -4.640625 17.367188 -4.757812 18.203125 -5 C 19.035156 -5.25 19.816406 -5.644531 20.546875 -6.1875 C 21.285156 -6.738281 21.910156 -7.441406 22.421875 -8.296875 C 22.929688 -9.148438 23.1875 -10.1875 23.1875 -11.40625 L 23.1875 -29.21875 L 29.09375 -29.21875 L 29.09375 0 L 24.40625 0 Z M 23.1875 -2.625 "/></g></g></g><g fill="#000000" fill-opacity="1"><g transform="translate(254.697618, 430.819218)"><g><path d="M 9.21875 0 L 3.296875 0 L 3.296875 -29.21875 L 7.984375 -29.21875 L 9.21875 -26.65625 C 10.1875 -27.59375 11.363281 -28.363281 12.75 -28.96875 C 14.132812 -29.582031 15.640625 -29.890625 17.265625 -29.890625 C 18.316406 -29.890625 19.515625 -29.722656 20.859375 -29.390625 C 22.203125 -29.066406 23.453125 -28.457031 24.609375 -27.5625 C 25.773438 -26.675781 26.753906 -25.4375 27.546875 -23.84375 C 28.335938 -22.257812 28.734375 -20.207031 28.734375 -17.6875 L 28.734375 0 L 23.125 0 L 23.125 -17.75 C 23.125 -19.007812 22.925781 -20.078125 22.53125 -20.953125 C 22.144531 -21.828125 21.632812 -22.523438 21 -23.046875 C 20.375 -23.578125 19.664062 -23.953125 18.875 -24.171875 C 18.082031 -24.398438 17.257812 -24.515625 16.40625 -24.515625 C 15.757812 -24.515625 15.019531 -24.394531 14.1875 -24.15625 C 13.351562 -23.914062 12.566406 -23.519531 11.828125 -22.96875 C 11.097656 -22.414062 10.476562 -21.722656 9.96875 -20.890625 C 9.46875 -20.054688 9.21875 -19.03125 9.21875 -17.8125 Z M 9.21875 0 "/></g></g></g><g fill="#000000" fill-opacity="1"><g transform="translate(287.269538, 430.819218)"><g><path d="M 16.71875 -1.46875 C 14.675781 -1.46875 12.800781 -1.84375 11.09375 -2.59375 C 9.394531 -3.34375 7.914062 -4.378906 6.65625 -5.703125 C 5.394531 -7.023438 4.40625 -8.550781 3.6875 -10.28125 C 2.976562 -12.007812 2.625 -13.847656 2.625 -15.796875 C 2.625 -17.753906 2.976562 -19.582031 3.6875 -21.28125 C 4.40625 -22.988281 5.394531 -24.484375 6.65625 -25.765625 C 7.914062 -27.046875 9.394531 -28.050781 11.09375 -28.78125 C 12.800781 -29.519531 14.675781 -29.890625 16.71875 -29.890625 C 18.75 -29.890625 20.515625 -29.582031 22.015625 -28.96875 C 23.523438 -28.363281 24.847656 -27.492188 25.984375 -26.359375 L 27.203125 -29.21875 L 31.84375 -29.21875 C 31.84375 -29.09375 31.84375 -28.9375 31.84375 -28.75 C 31.84375 -28.570312 31.84375 -28.21875 31.84375 -27.6875 C 31.84375 -27.164062 31.84375 -26.414062 31.84375 -25.4375 C 31.84375 -24.457031 31.84375 -23.113281 31.84375 -21.40625 C 31.84375 -19.695312 31.851562 -17.5625 31.875 -15 C 31.894531 -12.4375 31.90625 -9.328125 31.90625 -5.671875 C 31.90625 -4.453125 31.863281 -3.257812 31.78125 -2.09375 C 31.695312 -0.9375 31.519531 0.175781 31.25 1.25 C 30.988281 2.320312 30.601562 3.359375 30.09375 4.359375 C 29.59375 5.359375 28.914062 6.328125 28.0625 7.265625 C 26.4375 8.972656 24.59375 10.117188 22.53125 10.703125 C 20.476562 11.296875 18.316406 11.59375 16.046875 11.59375 C 14.085938 11.59375 12.242188 11.347656 10.515625 10.859375 C 8.796875 10.367188 7.242188 9.71875 5.859375 8.90625 L 5.859375 2.3125 C 6.671875 3.5 7.941406 4.457031 9.671875 5.1875 C 11.398438 5.914062 13.363281 6.28125 15.5625 6.28125 C 17.019531 6.28125 18.378906 6.085938 19.640625 5.703125 C 20.898438 5.316406 22 4.726562 22.9375 3.9375 C 23.875 3.144531 24.613281 2.117188 25.15625 0.859375 C 25.707031 -0.398438 25.984375 -1.90625 25.984375 -3.65625 L 25.984375 -4.8125 C 25.492188 -4.363281 24.894531 -3.9375 24.1875 -3.53125 C 23.476562 -3.125 22.707031 -2.769531 21.875 -2.46875 C 21.039062 -2.164062 20.175781 -1.921875 19.28125 -1.734375 C 18.382812 -1.554688 17.53125 -1.46875 16.71875 -1.46875 Z M 17.265625 -24.515625 C 16.085938 -24.515625 14.96875 -24.289062 13.90625 -23.84375 C 12.851562 -23.40625 11.925781 -22.785156 11.125 -21.984375 C 10.332031 -21.191406 9.710938 -20.265625 9.265625 -19.203125 C 8.816406 -18.148438 8.59375 -17.015625 8.59375 -15.796875 C 8.59375 -14.578125 8.816406 -13.425781 9.265625 -12.34375 C 9.710938 -11.269531 10.332031 -10.335938 11.125 -9.546875 C 11.925781 -8.753906 12.851562 -8.125 13.90625 -7.65625 C 14.96875 -7.1875 16.085938 -6.953125 17.265625 -6.953125 C 18.441406 -6.953125 19.554688 -7.132812 20.609375 -7.5 C 21.671875 -7.863281 22.585938 -8.410156 23.359375 -9.140625 C 24.128906 -9.878906 24.738281 -10.796875 25.1875 -11.890625 C 25.632812 -12.992188 25.859375 -14.296875 25.859375 -15.796875 C 25.859375 -17.378906 25.632812 -18.726562 25.1875 -19.84375 C 24.738281 -20.96875 24.128906 -21.875 23.359375 -22.5625 C 22.585938 -23.257812 21.671875 -23.757812 20.609375 -24.0625 C 19.554688 -24.363281 18.441406 -24.515625 17.265625 -24.515625 Z M 17.265625 -24.515625 "/></g></g></g><g fill="#000000" fill-opacity="1"><g transform="translate(323.318242, 430.819218)"><g/></g></g><g fill="#000000" fill-opacity="1"><g transform="translate(339.238232, 430.819218)"><g><path d="M 31.109375 -29.21875 L 31.109375 0 L 26.109375 0 L 25.1875 -3.359375 C 24.175781 -2.015625 22.875 -0.992188 21.28125 -0.296875 C 19.695312 0.390625 18.09375 0.734375 16.46875 0.734375 C 14.4375 0.734375 12.535156 0.335938 10.765625 -0.453125 C 8.992188 -1.242188 7.445312 -2.332031 6.125 -3.71875 C 4.800781 -5.101562 3.753906 -6.726562 2.984375 -8.59375 C 2.210938 -10.46875 1.828125 -12.460938 1.828125 -14.578125 C 1.828125 -16.691406 2.210938 -18.679688 2.984375 -20.546875 C 3.753906 -22.421875 4.800781 -24.050781 6.125 -25.4375 C 7.445312 -26.820312 8.992188 -27.910156 10.765625 -28.703125 C 12.535156 -29.492188 14.4375 -29.890625 16.46875 -29.890625 C 18.09375 -29.890625 19.65625 -29.570312 21.15625 -28.9375 C 22.664062 -28.3125 24.007812 -27.328125 25.1875 -25.984375 L 26.109375 -29.21875 Z M 16.46875 -4.515625 C 17.644531 -4.515625 18.757812 -4.773438 19.8125 -5.296875 C 20.875 -5.828125 21.789062 -6.550781 22.5625 -7.46875 C 23.34375 -8.382812 23.957031 -9.453125 24.40625 -10.671875 C 24.851562 -11.890625 25.078125 -13.191406 25.078125 -14.578125 C 25.078125 -15.960938 24.851562 -17.265625 24.40625 -18.484375 C 23.957031 -19.703125 23.34375 -20.769531 22.5625 -21.6875 C 21.789062 -22.601562 20.875 -23.320312 19.8125 -23.84375 C 18.757812 -24.375 17.644531 -24.640625 16.46875 -24.640625 C 15.289062 -24.640625 14.171875 -24.375 13.109375 -23.84375 C 12.054688 -23.320312 11.144531 -22.601562 10.375 -21.6875 C 9.601562 -20.769531 8.992188 -19.703125 8.546875 -18.484375 C 8.097656 -17.265625 7.875 -15.960938 7.875 -14.578125 C 7.875 -13.191406 8.097656 -11.890625 8.546875 -10.671875 C 8.992188 -9.453125 9.601562 -8.382812 10.375 -7.46875 C 11.144531 -6.550781 12.054688 -5.828125 13.109375 -5.296875 C 14.171875 -4.773438 15.289062 -4.515625 16.46875 -4.515625 Z M 16.46875 -4.515625 "/></g></g></g><g fill="#000000" fill-opacity="1"><g transform="translate(372.969073, 430.819218)"><g><path d="M 9.21875 0 L 3.296875 0 L 3.296875 -29.21875 L 7.984375 -29.21875 L 9.21875 -26.65625 C 10.1875 -27.59375 11.363281 -28.363281 12.75 -28.96875 C 14.132812 -29.582031 15.640625 -29.890625 17.265625 -29.890625 C 18.316406 -29.890625 19.515625 -29.722656 20.859375 -29.390625 C 22.203125 -29.066406 23.453125 -28.457031 24.609375 -27.5625 C 25.773438 -26.675781 26.753906 -25.4375 27.546875 -23.84375 C 28.335938 -22.257812 28.734375 -20.207031 28.734375 -17.6875 L 28.734375 0 L 23.125 0 L 23.125 -17.75 C 23.125 -19.007812 22.925781 -20.078125 22.53125 -20.953125 C 22.144531 -21.828125 21.632812 -22.523438 21 -23.046875 C 20.375 -23.578125 19.664062 -23.953125 18.875 -24.171875 C 18.082031 -24.398438 17.257812 -24.515625 16.40625 -24.515625 C 15.757812 -24.515625 15.019531 -24.394531 14.1875 -24.15625 C 13.351562 -23.914062 12.566406 -23.519531 11.828125 -22.96875 C 11.097656 -22.414062 10.476562 -21.722656 9.96875 -20.890625 C 9.46875 -20.054688 9.21875 -19.03125 9.21875 -17.8125 Z M 9.21875 0 "/></g></g></g><g fill="#000000" fill-opacity="1"><g transform="translate(405.540994, 430.819218)"><g><path d="M 31.359375 -44.53125 L 31.359375 0 L 26.65625 0 L 25.4375 -3.046875 C 24.257812 -1.867188 22.914062 -0.941406 21.40625 -0.265625 C 19.90625 0.398438 18.175781 0.734375 16.21875 0.734375 C 14.1875 0.734375 12.316406 0.335938 10.609375 -0.453125 C 8.898438 -1.242188 7.414062 -2.332031 6.15625 -3.71875 C 4.894531 -5.101562 3.910156 -6.726562 3.203125 -8.59375 C 2.492188 -10.46875 2.140625 -12.460938 2.140625 -14.578125 C 2.140625 -16.691406 2.492188 -18.679688 3.203125 -20.546875 C 3.910156 -22.421875 4.894531 -24.050781 6.15625 -25.4375 C 7.414062 -26.820312 8.898438 -27.910156 10.609375 -28.703125 C 12.316406 -29.492188 14.1875 -29.890625 16.21875 -29.890625 C 18.257812 -29.890625 20.03125 -29.550781 21.53125 -28.875 C 23.039062 -28.207031 24.34375 -27.265625 25.4375 -26.046875 L 25.4375 -44.53125 Z M 16.71875 -4.515625 C 17.9375 -4.515625 19.0625 -4.71875 20.09375 -5.125 C 21.132812 -5.53125 22.050781 -6.148438 22.84375 -6.984375 C 23.632812 -7.816406 24.253906 -8.863281 24.703125 -10.125 C 25.148438 -11.382812 25.375 -12.867188 25.375 -14.578125 C 25.375 -16.410156 25.148438 -17.957031 24.703125 -19.21875 C 24.253906 -20.476562 23.632812 -21.503906 22.84375 -22.296875 C 22.050781 -23.085938 21.132812 -23.65625 20.09375 -24 C 19.0625 -24.34375 17.9375 -24.515625 16.71875 -24.515625 C 15.53125 -24.515625 14.40625 -24.257812 13.34375 -23.75 C 12.289062 -23.25 11.378906 -22.550781 10.609375 -21.65625 C 9.835938 -20.757812 9.226562 -19.703125 8.78125 -18.484375 C 8.332031 -17.265625 8.109375 -15.960938 8.109375 -14.578125 C 8.109375 -13.191406 8.332031 -11.890625 8.78125 -10.671875 C 9.226562 -9.453125 9.835938 -8.382812 10.609375 -7.46875 C 11.378906 -6.550781 12.289062 -5.828125 13.34375 -5.296875 C 14.40625 -4.773438 15.53125 -4.515625 16.71875 -4.515625 Z M 16.71875 -4.515625 "/></g></g></g><g fill="#000000" fill-opacity="1"><g transform="translate(440.857757, 430.819218)"><g/></g></g><g fill="#000000" fill-opacity="1"><g transform="translate(456.77777, 430.819218)"><g><path d="M 19.28125 -0.0625 C 17.613281 0.507812 15.960938 0.851562 14.328125 0.96875 C 12.703125 1.09375 11.238281 0.859375 9.9375 0.265625 C 8.632812 -0.316406 7.578125 -1.347656 6.765625 -2.828125 C 5.953125 -4.316406 5.546875 -6.40625 5.546875 -9.09375 L 5.546875 -23.90625 L 1.28125 -23.90625 L 1.28125 -28 L 5.546875 -29.21875 L 5.546875 -37.03125 L 11.46875 -37.03125 L 11.46875 -29.21875 L 19.390625 -29.21875 L 19.390625 -23.90625 L 11.46875 -23.90625 L 11.46875 -8.171875 C 11.46875 -7.191406 11.578125 -6.414062 11.796875 -5.84375 C 12.023438 -5.28125 12.398438 -4.851562 12.921875 -4.5625 C 13.453125 -4.28125 14.144531 -4.140625 15 -4.140625 C 15.851562 -4.140625 16.890625 -4.222656 18.109375 -4.390625 Z M 19.28125 -0.0625 "/></g></g></g><g fill="#000000" fill-opacity="1"><g transform="translate(477.638426, 430.819218)"><g><path d="M 9.328125 0 L 3.421875 0 L 3.421875 -44.53125 L 9.328125 -44.53125 L 9.328125 -26.53125 C 10.429688 -27.75 11.582031 -28.613281 12.78125 -29.125 C 13.976562 -29.632812 15.367188 -29.890625 16.953125 -29.890625 C 18.992188 -29.890625 20.816406 -29.492188 22.421875 -28.703125 C 24.023438 -27.910156 25.394531 -26.820312 26.53125 -25.4375 C 27.675781 -24.050781 28.539062 -22.421875 29.125 -20.546875 C 29.71875 -18.679688 30.015625 -16.691406 30.015625 -14.578125 L 30.015625 0 L 24.03125 0 L 24.03125 -14.578125 C 24.03125 -15.960938 23.835938 -17.265625 23.453125 -18.484375 C 23.066406 -19.703125 22.535156 -20.757812 21.859375 -21.65625 C 21.191406 -22.550781 20.421875 -23.25 19.546875 -23.75 C 18.671875 -24.257812 17.726562 -24.515625 16.71875 -24.515625 C 15.863281 -24.515625 15.007812 -24.34375 14.15625 -24 C 13.300781 -23.65625 12.515625 -23.097656 11.796875 -22.328125 C 11.085938 -21.554688 10.5 -20.539062 10.03125 -19.28125 C 9.5625 -18.019531 9.328125 -16.492188 9.328125 -14.703125 Z M 9.328125 0 "/></g></g></g><g fill="#000000" fill-opacity="1"><g transform="translate(510.6983, 430.819218)"><g><path d="M 17.265625 0.734375 C 15.148438 0.734375 13.164062 0.335938 11.3125 -0.453125 C 9.46875 -1.242188 7.851562 -2.332031 6.46875 -3.71875 C 5.082031 -5.101562 3.992188 -6.726562 3.203125 -8.59375 C 2.410156 -10.46875 2.015625 -12.460938 2.015625 -14.578125 C 2.015625 -16.691406 2.390625 -18.679688 3.140625 -20.546875 C 3.890625 -22.421875 4.90625 -24.050781 6.1875 -25.4375 C 7.46875 -26.820312 8.960938 -27.910156 10.671875 -28.703125 C 12.378906 -29.492188 14.210938 -29.890625 16.171875 -29.890625 C 18.160156 -29.890625 20 -29.539062 21.6875 -28.84375 C 23.375 -28.15625 24.835938 -27.078125 26.078125 -25.609375 C 27.316406 -24.148438 28.28125 -22.289062 28.96875 -20.03125 C 29.664062 -17.78125 30.015625 -15.085938 30.015625 -11.953125 L 8.296875 -11.953125 C 8.578125 -10.898438 9.019531 -9.914062 9.625 -9 C 10.238281 -8.082031 10.960938 -7.285156 11.796875 -6.609375 C 12.628906 -5.941406 13.566406 -5.425781 14.609375 -5.0625 C 15.648438 -4.695312 16.738281 -4.515625 17.875 -4.515625 C 19.414062 -4.515625 20.847656 -4.796875 22.171875 -5.359375 C 23.492188 -5.929688 24.625 -6.6875 25.5625 -7.625 L 29.21875 -3.96875 C 27.789062 -2.539062 26.050781 -1.398438 24 -0.546875 C 21.945312 0.304688 19.703125 0.734375 17.265625 0.734375 Z M 16.171875 -24.515625 C 15.234375 -24.515625 14.347656 -24.332031 13.515625 -23.96875 C 12.679688 -23.601562 11.90625 -23.09375 11.1875 -22.4375 C 10.476562 -21.789062 9.867188 -21.019531 9.359375 -20.125 C 8.847656 -19.226562 8.472656 -18.253906 8.234375 -17.203125 L 23.671875 -17.203125 C 23.585938 -18.179688 23.363281 -19.113281 23 -20 C 22.632812 -20.894531 22.125 -21.675781 21.46875 -22.34375 C 20.820312 -23.019531 20.0625 -23.550781 19.1875 -23.9375 C 18.3125 -24.320312 17.304688 -24.515625 16.171875 -24.515625 Z M 16.171875 -24.515625 "/></g></g></g><g fill="#000000" fill-opacity="1"><g transform="translate(543.026255, 430.819218)"><g/></g></g><g fill="#000000" fill-opacity="1"><g transform="translate(558.946222, 430.819218)"><g><path d="M 39.09375 0 L 31.109375 0 L 17.5 -18.671875 L 9.9375 -18.671875 L 9.9375 0 L 3.53125 0 L 3.53125 -43.25 L 21.109375 -43.25 C 22.816406 -43.25 24.429688 -42.921875 25.953125 -42.265625 C 27.484375 -41.617188 28.804688 -40.742188 29.921875 -39.640625 C 31.035156 -38.546875 31.914062 -37.253906 32.5625 -35.765625 C 33.21875 -34.285156 33.546875 -32.691406 33.546875 -30.984375 C 33.546875 -29.566406 33.320312 -28.226562 32.875 -26.96875 C 32.425781 -25.707031 31.804688 -24.566406 31.015625 -23.546875 C 30.222656 -22.523438 29.273438 -21.640625 28.171875 -20.890625 C 27.078125 -20.140625 25.878906 -19.582031 24.578125 -19.21875 Z M 21.109375 -24.640625 C 21.960938 -24.640625 22.773438 -24.8125 23.546875 -25.15625 C 24.316406 -25.507812 24.976562 -25.96875 25.53125 -26.53125 C 26.082031 -27.101562 26.519531 -27.785156 26.84375 -28.578125 C 27.164062 -29.367188 27.328125 -30.210938 27.328125 -31.109375 C 27.328125 -32.003906 27.164062 -32.835938 26.84375 -33.609375 C 26.519531 -34.378906 26.082031 -35.0625 25.53125 -35.65625 C 24.976562 -36.25 24.316406 -36.71875 23.546875 -37.0625 C 22.773438 -37.40625 21.960938 -37.578125 21.109375 -37.578125 L 9.9375 -37.578125 L 9.9375 -24.578125 Z M 21.109375 -24.640625 "/></g></g></g><g fill="#000000" fill-opacity="1"><g transform="translate(598.959663, 430.819218)"><g><path d="M 17.265625 0.734375 C 15.148438 0.734375 13.164062 0.335938 11.3125 -0.453125 C 9.46875 -1.242188 7.851562 -2.332031 6.46875 -3.71875 C 5.082031 -5.101562 3.992188 -6.726562 3.203125 -8.59375 C 2.410156 -10.46875 2.015625 -12.460938 2.015625 -14.578125 C 2.015625 -16.691406 2.390625 -18.679688 3.140625 -20.546875 C 3.890625 -22.421875 4.90625 -24.050781 6.1875 -25.4375 C 7.46875 -26.820312 8.960938 -27.910156 10.671875 -28.703125 C 12.378906 -29.492188 14.210938 -29.890625 16.171875 -29.890625 C 18.160156 -29.890625 20 -29.539062 21.6875 -28.84375 C 23.375 -28.15625 24.835938 -27.078125 26.078125 -25.609375 C 27.316406 -24.148438 28.28125 -22.289062 28.96875 -20.03125 C 29.664062 -17.78125 30.015625 -15.085938 30.015625 -11.953125 L 8.296875 -11.953125 C 8.578125 -10.898438 9.019531 -9.914062 9.625 -9 C 10.238281 -8.082031 10.960938 -7.285156 11.796875 -6.609375 C 12.628906 -5.941406 13.566406 -5.425781 14.609375 -5.0625 C 15.648438 -4.695312 16.738281 -4.515625 17.875 -4.515625 C 19.414062 -4.515625 20.847656 -4.796875 22.171875 -5.359375 C 23.492188 -5.929688 24.625 -6.6875 25.5625 -7.625 L 29.21875 -3.96875 C 27.789062 -2.539062 26.050781 -1.398438 24 -0.546875 C 21.945312 0.304688 19.703125 0.734375 17.265625 0.734375 Z M 16.171875 -24.515625 C 15.234375 -24.515625 14.347656 -24.332031 13.515625 -23.96875 C 12.679688 -23.601562 11.90625 -23.09375 11.1875 -22.4375 C 10.476562 -21.789062 9.867188 -21.019531 9.359375 -20.125 C 8.847656 -19.226562 8.472656 -18.253906 8.234375 -17.203125 L 23.671875 -17.203125 C 23.585938 -18.179688 23.363281 -19.113281 23 -20 C 22.632812 -20.894531 22.125 -21.675781 21.46875 -22.34375 C 20.820312 -23.019531 20.0625 -23.550781 19.1875 -23.9375 C 18.3125 -24.320312 17.304688 -24.515625 16.171875 -24.515625 Z M 16.171875 -24.515625 "/></g></g></g><g fill="#000000" fill-opacity="1"><g transform="translate(631.287619, 430.819218)"><g><path d="M 17.015625 -6.09375 C 17.378906 -6.425781 17.703125 -6.796875 17.984375 -7.203125 C 18.273438 -7.609375 18.421875 -8.070312 18.421875 -8.59375 C 18.421875 -9.25 18.1875 -9.800781 17.71875 -10.25 C 17.25 -10.695312 16.675781 -11.070312 16 -11.375 C 15.332031 -11.675781 14.632812 -11.910156 13.90625 -12.078125 C 13.175781 -12.242188 12.566406 -12.382812 12.078125 -12.5 C 10.734375 -12.832031 9.472656 -13.226562 8.296875 -13.6875 C 7.117188 -14.15625 6.09375 -14.722656 5.21875 -15.390625 C 4.34375 -16.066406 3.648438 -16.863281 3.140625 -17.78125 C 2.628906 -18.695312 2.375 -19.785156 2.375 -21.046875 C 2.375 -22.222656 2.660156 -23.328125 3.234375 -24.359375 C 3.804688 -25.398438 4.566406 -26.316406 5.515625 -27.109375 C 6.472656 -27.898438 7.59375 -28.53125 8.875 -29 C 10.15625 -29.46875 11.507812 -29.703125 12.9375 -29.703125 C 14.195312 -29.703125 15.394531 -29.519531 16.53125 -29.15625 C 17.664062 -28.789062 18.691406 -28.289062 19.609375 -27.65625 C 20.523438 -27.03125 21.296875 -26.269531 21.921875 -25.375 C 22.554688 -24.476562 22.976562 -23.484375 23.1875 -22.390625 L 17.875 -21.109375 C 17.625 -22.078125 17.09375 -22.882812 16.28125 -23.53125 C 15.46875 -24.1875 14.351562 -24.515625 12.9375 -24.515625 C 12.445312 -24.515625 11.9375 -24.441406 11.40625 -24.296875 C 10.875 -24.160156 10.382812 -23.945312 9.9375 -23.65625 C 9.488281 -23.375 9.113281 -23.03125 8.8125 -22.625 C 8.507812 -22.21875 8.359375 -21.753906 8.359375 -21.234375 C 8.359375 -20.660156 8.53125 -20.171875 8.875 -19.765625 C 9.21875 -19.359375 9.632812 -19.019531 10.125 -18.75 C 10.613281 -18.488281 11.140625 -18.273438 11.703125 -18.109375 C 12.273438 -17.953125 12.804688 -17.8125 13.296875 -17.6875 C 15.453125 -17.15625 17.238281 -16.582031 18.65625 -15.96875 C 20.082031 -15.363281 21.222656 -14.695312 22.078125 -13.96875 C 22.929688 -13.238281 23.53125 -12.4375 23.875 -11.5625 C 24.226562 -10.6875 24.40625 -9.695312 24.40625 -8.59375 C 24.40625 -7.300781 24.109375 -6.082031 23.515625 -4.9375 C 22.921875 -3.800781 22.101562 -2.816406 21.0625 -1.984375 C 20.03125 -1.148438 18.789062 -0.5 17.34375 -0.03125 C 15.90625 0.4375 14.351562 0.671875 12.6875 0.671875 C 10.164062 0.671875 7.914062 0.0507812 5.9375 -1.1875 C 3.96875 -2.425781 2.640625 -4.082031 1.953125 -6.15625 L 6.953125 -8.421875 C 7.609375 -6.992188 8.441406 -6.023438 9.453125 -5.515625 C 10.472656 -5.015625 11.632812 -4.765625 12.9375 -4.765625 C 14.5625 -4.765625 15.921875 -5.207031 17.015625 -6.09375 Z M 17.015625 -6.09375 "/></g></g></g><g fill="#000000" fill-opacity="1"><g transform="translate(657.515919, 430.819218)"><g><path d="M 19.28125 -0.0625 C 17.613281 0.507812 15.960938 0.851562 14.328125 0.96875 C 12.703125 1.09375 11.238281 0.859375 9.9375 0.265625 C 8.632812 -0.316406 7.578125 -1.347656 6.765625 -2.828125 C 5.953125 -4.316406 5.546875 -6.40625 5.546875 -9.09375 L 5.546875 -23.90625 L 1.28125 -23.90625 L 1.28125 -28 L 5.546875 -29.21875 L 5.546875 -37.03125 L 11.46875 -37.03125 L 11.46875 -29.21875 L 19.390625 -29.21875 L 19.390625 -23.90625 L 11.46875 -23.90625 L 11.46875 -8.171875 C 11.46875 -7.191406 11.578125 -6.414062 11.796875 -5.84375 C 12.023438 -5.28125 12.398438 -4.851562 12.921875 -4.5625 C 13.453125 -4.28125 14.144531 -4.140625 15 -4.140625 C 15.851562 -4.140625 16.890625 -4.222656 18.109375 -4.390625 Z M 19.28125 -0.0625 "/></g></g></g><g fill="#000000" fill-opacity="1"><g transform="translate(678.376575, 430.819218)"><g><path d="M 9.640625 -44.53125 L 9.640625 0 L 3.71875 0 L 3.71875 -44.53125 Z M 9.640625 -44.53125 "/></g></g></g><g fill="#000000" fill-opacity="1"><g transform="translate(691.307757, 430.819218)"><g><path d="M 17.265625 0.734375 C 15.148438 0.734375 13.164062 0.335938 11.3125 -0.453125 C 9.46875 -1.242188 7.851562 -2.332031 6.46875 -3.71875 C 5.082031 -5.101562 3.992188 -6.726562 3.203125 -8.59375 C 2.410156 -10.46875 2.015625 -12.460938 2.015625 -14.578125 C 2.015625 -16.691406 2.390625 -18.679688 3.140625 -20.546875 C 3.890625 -22.421875 4.90625 -24.050781 6.1875 -25.4375 C 7.46875 -26.820312 8.960938 -27.910156 10.671875 -28.703125 C 12.378906 -29.492188 14.210938 -29.890625 16.171875 -29.890625 C 18.160156 -29.890625 20 -29.539062 21.6875 -28.84375 C 23.375 -28.15625 24.835938 -27.078125 26.078125 -25.609375 C 27.316406 -24.148438 28.28125 -22.289062 28.96875 -20.03125 C 29.664062 -17.78125 30.015625 -15.085938 30.015625 -11.953125 L 8.296875 -11.953125 C 8.578125 -10.898438 9.019531 -9.914062 9.625 -9 C 10.238281 -8.082031 10.960938 -7.285156 11.796875 -6.609375 C 12.628906 -5.941406 13.566406 -5.425781 14.609375 -5.0625 C 15.648438 -4.695312 16.738281 -4.515625 17.875 -4.515625 C 19.414062 -4.515625 20.847656 -4.796875 22.171875 -5.359375 C 23.492188 -5.929688 24.625 -6.6875 25.5625 -7.625 L 29.21875 -3.96875 C 27.789062 -2.539062 26.050781 -1.398438 24 -0.546875 C 21.945312 0.304688 19.703125 0.734375 17.265625 0.734375 Z M 16.171875 -24.515625 C 15.234375 -24.515625 14.347656 -24.332031 13.515625 -23.96875 C 12.679688 -23.601562 11.90625 -23.09375 11.1875 -22.4375 C 10.476562 -21.789062 9.867188 -21.019531 9.359375 -20.125 C 8.847656 -19.226562 8.472656 -18.253906 8.234375 -17.203125 L 23.671875 -17.203125 C 23.585938 -18.179688 23.363281 -19.113281 23 -20 C 22.632812 -20.894531 22.125 -21.675781 21.46875 -22.34375 C 20.820312 -23.019531 20.0625 -23.550781 19.1875 -23.9375 C 18.3125 -24.320312 17.304688 -24.515625 16.171875 -24.515625 Z M 16.171875 -24.515625 "/></g></g></g><g fill="#000000" fill-opacity="1"><g transform="translate(723.635713, 430.819218)"><g><path d="M 17.015625 -6.09375 C 17.378906 -6.425781 17.703125 -6.796875 17.984375 -7.203125 C 18.273438 -7.609375 18.421875 -8.070312 18.421875 -8.59375 C 18.421875 -9.25 18.1875 -9.800781 17.71875 -10.25 C 17.25 -10.695312 16.675781 -11.070312 16 -11.375 C 15.332031 -11.675781 14.632812 -11.910156 13.90625 -12.078125 C 13.175781 -12.242188 12.566406 -12.382812 12.078125 -12.5 C 10.734375 -12.832031 9.472656 -13.226562 8.296875 -13.6875 C 7.117188 -14.15625 6.09375 -14.722656 5.21875 -15.390625 C 4.34375 -16.066406 3.648438 -16.863281 3.140625 -17.78125 C 2.628906 -18.695312 2.375 -19.785156 2.375 -21.046875 C 2.375 -22.222656 2.660156 -23.328125 3.234375 -24.359375 C 3.804688 -25.398438 4.566406 -26.316406 5.515625 -27.109375 C 6.472656 -27.898438 7.59375 -28.53125 8.875 -29 C 10.15625 -29.46875 11.507812 -29.703125 12.9375 -29.703125 C 14.195312 -29.703125 15.394531 -29.519531 16.53125 -29.15625 C 17.664062 -28.789062 18.691406 -28.289062 19.609375 -27.65625 C 20.523438 -27.03125 21.296875 -26.269531 21.921875 -25.375 C 22.554688 -24.476562 22.976562 -23.484375 23.1875 -22.390625 L 17.875 -21.109375 C 17.625 -22.078125 17.09375 -22.882812 16.28125 -23.53125 C 15.46875 -24.1875 14.351562 -24.515625 12.9375 -24.515625 C 12.445312 -24.515625 11.9375 -24.441406 11.40625 -24.296875 C 10.875 -24.160156 10.382812 -23.945312 9.9375 -23.65625 C 9.488281 -23.375 9.113281 -23.03125 8.8125 -22.625 C 8.507812 -22.21875 8.359375 -21.753906 8.359375 -21.234375 C 8.359375 -20.660156 8.53125 -20.171875 8.875 -19.765625 C 9.21875 -19.359375 9.632812 -19.019531 10.125 -18.75 C 10.613281 -18.488281 11.140625 -18.273438 11.703125 -18.109375 C 12.273438 -17.953125 12.804688 -17.8125 13.296875 -17.6875 C 15.453125 -17.15625 17.238281 -16.582031 18.65625 -15.96875 C 20.082031 -15.363281 21.222656 -14.695312 22.078125 -13.96875 C 22.929688 -13.238281 23.53125 -12.4375 23.875 -11.5625 C 24.226562 -10.6875 24.40625 -9.695312 24.40625 -8.59375 C 24.40625 -7.300781 24.109375 -6.082031 23.515625 -4.9375 C 22.921875 -3.800781 22.101562 -2.816406 21.0625 -1.984375 C 20.03125 -1.148438 18.789062 -0.5 17.34375 -0.03125 C 15.90625 0.4375 14.351562 0.671875 12.6875 0.671875 C 10.164062 0.671875 7.914062 0.0507812 5.9375 -1.1875 C 3.96875 -2.425781 2.640625 -4.082031 1.953125 -6.15625 L 6.953125 -8.421875 C 7.609375 -6.992188 8.441406 -6.023438 9.453125 -5.515625 C 10.472656 -5.015625 11.632812 -4.765625 12.9375 -4.765625 C 14.5625 -4.765625 15.921875 -5.207031 17.015625 -6.09375 Z M 17.015625 -6.09375 "/></g></g></g><g fill="#000000" fill-opacity="1"><g transform="translate(749.864059, 430.819218)"><g><path d="M 17.015625 -6.09375 C 17.378906 -6.425781 17.703125 -6.796875 17.984375 -7.203125 C 18.273438 -7.609375 18.421875 -8.070312 18.421875 -8.59375 C 18.421875 -9.25 18.1875 -9.800781 17.71875 -10.25 C 17.25 -10.695312 16.675781 -11.070312 16 -11.375 C 15.332031 -11.675781 14.632812 -11.910156 13.90625 -12.078125 C 13.175781 -12.242188 12.566406 -12.382812 12.078125 -12.5 C 10.734375 -12.832031 9.472656 -13.226562 8.296875 -13.6875 C 7.117188 -14.15625 6.09375 -14.722656 5.21875 -15.390625 C 4.34375 -16.066406 3.648438 -16.863281 3.140625 -17.78125 C 2.628906 -18.695312 2.375 -19.785156 2.375 -21.046875 C 2.375 -22.222656 2.660156 -23.328125 3.234375 -24.359375 C 3.804688 -25.398438 4.566406 -26.316406 5.515625 -27.109375 C 6.472656 -27.898438 7.59375 -28.53125 8.875 -29 C 10.15625 -29.46875 11.507812 -29.703125 12.9375 -29.703125 C 14.195312 -29.703125 15.394531 -29.519531 16.53125 -29.15625 C 17.664062 -28.789062 18.691406 -28.289062 19.609375 -27.65625 C 20.523438 -27.03125 21.296875 -26.269531 21.921875 -25.375 C 22.554688 -24.476562 22.976562 -23.484375 23.1875 -22.390625 L 17.875 -21.109375 C 17.625 -22.078125 17.09375 -22.882812 16.28125 -23.53125 C 15.46875 -24.1875 14.351562 -24.515625 12.9375 -24.515625 C 12.445312 -24.515625 11.9375 -24.441406 11.40625 -24.296875 C 10.875 -24.160156 10.382812 -23.945312 9.9375 -23.65625 C 9.488281 -23.375 9.113281 -23.03125 8.8125 -22.625 C 8.507812 -22.21875 8.359375 -21.753906 8.359375 -21.234375 C 8.359375 -20.660156 8.53125 -20.171875 8.875 -19.765625 C 9.21875 -19.359375 9.632812 -19.019531 10.125 -18.75 C 10.613281 -18.488281 11.140625 -18.273438 11.703125 -18.109375 C 12.273438 -17.953125 12.804688 -17.8125 13.296875 -17.6875 C 15.453125 -17.15625 17.238281 -16.582031 18.65625 -15.96875 C 20.082031 -15.363281 21.222656 -14.695312 22.078125 -13.96875 C 22.929688 -13.238281 23.53125 -12.4375 23.875 -11.5625 C 24.226562 -10.6875 24.40625 -9.695312 24.40625 -8.59375 C 24.40625 -7.300781 24.109375 -6.082031 23.515625 -4.9375 C 22.921875 -3.800781 22.101562 -2.816406 21.0625 -1.984375 C 20.03125 -1.148438 18.789062 -0.5 17.34375 -0.03125 C 15.90625 0.4375 14.351562 0.671875 12.6875 0.671875 C 10.164062 0.671875 7.914062 0.0507812 5.9375 -1.1875 C 3.96875 -2.425781 2.640625 -4.082031 1.953125 -6.15625 L 6.953125 -8.421875 C 7.609375 -6.992188 8.441406 -6.023438 9.453125 -5.515625 C 10.472656 -5.015625 11.632812 -4.765625 12.9375 -4.765625 C 14.5625 -4.765625 15.921875 -5.207031 17.015625 -6.09375 Z M 17.015625 -6.09375 "/></g></g></g><g fill="#000000" fill-opacity="1"><g transform="translate(776.091351, 430.819218)"><g/></g></g></svg>