<svg xmlns="http://www.w3.org/2000/svg" xmlns:xlink="http://www.w3.org/1999/xlink" width="1080" zoomAndPan="magnify" viewBox="0 0 810 809.999993" height="1080" preserveAspectRatio="xMidYMid meet" version="1.0"><defs><g/></defs><rect x="-81" width="972" fill="#ffffff" y="-80.999999" height="971.999992" fill-opacity="1"/><rect x="-81" width="972" fill="#ffd33b" y="-80.999999" height="971.999992" fill-opacity="1"/><g fill="#4f3770" fill-opacity="1"><g transform="translate(142.253903, 354.750002)"><g><path d="M 64.515625 -19.8125 L 64.515625 0 L 6.046875 0 L 6.046875 -19.8125 L 23.203125 -19.8125 L 23.203125 -62.46875 L 6.046875 -62.46875 L 6.046875 -80.109375 C 7.492188 -80.109375 8.878906 -80.1875 10.203125 -80.34375 C 11.535156 -80.507812 12.765625 -80.796875 13.890625 -81.203125 C 15.179688 -81.597656 16.367188 -82.140625 17.453125 -82.828125 C 18.546875 -83.515625 19.492188 -84.300781 20.296875 -85.1875 C 21.265625 -86.3125 21.988281 -87.457031 22.46875 -88.625 C 22.957031 -89.789062 23.203125 -90.976562 23.203125 -92.1875 L 47.359375 -92.1875 L 47.359375 -19.8125 Z M 64.515625 -19.8125 "/></g></g></g><g fill="#4f3770" fill-opacity="1"><g transform="translate(210.403192, 354.750002)"><g><path d="M 84.578125 -46.03125 C 84.578125 -30.8125 81.273438 -19.132812 74.671875 -11 C 68.066406 -2.863281 58.484375 1.203125 45.921875 1.203125 C 33.265625 1.203125 23.65625 -2.84375 17.09375 -10.9375 C 10.53125 -19.03125 7.25 -30.726562 7.25 -46.03125 C 7.25 -61.34375 10.53125 -73.066406 17.09375 -81.203125 C 23.65625 -89.335938 33.265625 -93.40625 45.921875 -93.40625 C 58.484375 -93.40625 68.066406 -89.316406 74.671875 -81.140625 C 81.273438 -72.960938 84.578125 -61.257812 84.578125 -46.03125 Z M 59.9375 -46.03125 C 59.9375 -55.132812 58.785156 -61.878906 56.484375 -66.265625 C 54.191406 -70.660156 50.671875 -72.859375 45.921875 -72.859375 C 41.160156 -72.859375 37.632812 -70.679688 35.34375 -66.328125 C 33.050781 -61.984375 31.90625 -55.21875 31.90625 -46.03125 C 31.90625 -36.851562 33.050781 -30.109375 35.34375 -25.796875 C 37.632812 -21.484375 41.160156 -19.328125 45.921875 -19.328125 C 50.671875 -19.328125 54.191406 -21.5 56.484375 -25.84375 C 58.785156 -30.195312 59.9375 -36.925781 59.9375 -46.03125 Z M 59.9375 -46.03125 "/></g></g></g><g fill="#4f3770" fill-opacity="1"><g transform="translate(302.235569, 354.750002)"><g><path d="M 84.578125 -46.03125 C 84.578125 -30.8125 81.273438 -19.132812 74.671875 -11 C 68.066406 -2.863281 58.484375 1.203125 45.921875 1.203125 C 33.265625 1.203125 23.65625 -2.84375 17.09375 -10.9375 C 10.53125 -19.03125 7.25 -30.726562 7.25 -46.03125 C 7.25 -61.34375 10.53125 -73.066406 17.09375 -81.203125 C 23.65625 -89.335938 33.265625 -93.40625 45.921875 -93.40625 C 58.484375 -93.40625 68.066406 -89.316406 74.671875 -81.140625 C 81.273438 -72.960938 84.578125 -61.257812 84.578125 -46.03125 Z M 59.9375 -46.03125 C 59.9375 -55.132812 58.785156 -61.878906 56.484375 -66.265625 C 54.191406 -70.660156 50.671875 -72.859375 45.921875 -72.859375 C 41.160156 -72.859375 37.632812 -70.679688 35.34375 -66.328125 C 33.050781 -61.984375 31.90625 -55.21875 31.90625 -46.03125 C 31.90625 -36.851562 33.050781 -30.109375 35.34375 -25.796875 C 37.632812 -21.484375 41.160156 -19.328125 45.921875 -19.328125 C 50.671875 -19.328125 54.191406 -21.5 56.484375 -25.84375 C 58.785156 -30.195312 59.9375 -36.925781 59.9375 -46.03125 Z M 59.9375 -46.03125 "/></g></g></g><g fill="#4f3770" fill-opacity="1"><g transform="translate(394.067947, 354.750002)"><g><path d="M 84.578125 -46.03125 C 84.578125 -30.8125 81.273438 -19.132812 74.671875 -11 C 68.066406 -2.863281 58.484375 1.203125 45.921875 1.203125 C 33.265625 1.203125 23.65625 -2.84375 17.09375 -10.9375 C 10.53125 -19.03125 7.25 -30.726562 7.25 -46.03125 C 7.25 -61.34375 10.53125 -73.066406 17.09375 -81.203125 C 23.65625 -89.335938 33.265625 -93.40625 45.921875 -93.40625 C 58.484375 -93.40625 68.066406 -89.316406 74.671875 -81.140625 C 81.273438 -72.960938 84.578125 -61.257812 84.578125 -46.03125 Z M 59.9375 -46.03125 C 59.9375 -55.132812 58.785156 -61.878906 56.484375 -66.265625 C 54.191406 -70.660156 50.671875 -72.859375 45.921875 -72.859375 C 41.160156 -72.859375 37.632812 -70.679688 35.34375 -66.328125 C 33.050781 -61.984375 31.90625 -55.21875 31.90625 -46.03125 C 31.90625 -36.851562 33.050781 -30.109375 35.34375 -25.796875 C 37.632812 -21.484375 41.160156 -19.328125 45.921875 -19.328125 C 50.671875 -19.328125 54.191406 -21.5 56.484375 -25.84375 C 58.785156 -30.195312 59.9375 -36.925781 59.9375 -46.03125 Z M 59.9375 -46.03125 "/></g></g></g><g fill="#4f3770" fill-opacity="1"><g transform="translate(485.900324, 354.750002)"><g><path d="M 53.171875 -42.65625 L 53.171875 -23.3125 L 4.828125 -23.3125 L 4.828125 -42.65625 Z M 53.171875 -42.65625 "/></g></g></g><g fill="#4f3770" fill-opacity="1"><g transform="translate(543.899711, 354.750002)"><g><path d="M 33.828125 -95.578125 L 33.828125 0 L 9.671875 0 L 9.671875 -95.578125 Z M 33.828125 -95.578125 "/></g></g></g><g fill="#4f3770" fill-opacity="1"><g transform="translate(587.399251, 354.750002)"><g><path d="M 75.515625 -35.40625 C 75.515625 -24.363281 72.289062 -15.5 65.84375 -8.8125 C 59.40625 -2.132812 50.789062 1.203125 40 1.203125 C 35.8125 1.203125 31.359375 0.640625 26.640625 -0.484375 C 21.929688 -1.609375 16.273438 -3.421875 9.671875 -5.921875 L 9.671875 -95.578125 L 33.828125 -95.578125 L 33.828125 -60.53125 L 34.078125 -60.296875 C 36.328125 -62.628906 38.878906 -64.359375 41.734375 -65.484375 C 44.597656 -66.617188 47.882812 -67.1875 51.59375 -67.1875 C 58.675781 -67.1875 64.429688 -64.285156 68.859375 -58.484375 C 73.296875 -52.679688 75.515625 -44.988281 75.515625 -35.40625 Z M 33.828125 -19.21875 C 34.878906 -18.726562 35.925781 -18.363281 36.96875 -18.125 C 38.019531 -17.882812 39.066406 -17.765625 40.109375 -17.765625 C 43.734375 -17.765625 46.515625 -19.113281 48.453125 -21.8125 C 50.390625 -24.507812 51.359375 -28.351562 51.359375 -33.34375 C 51.359375 -38.101562 50.429688 -41.75 48.578125 -44.28125 C 46.722656 -46.820312 44.0625 -48.09375 40.59375 -48.09375 C 39.144531 -48.09375 37.835938 -47.828125 36.671875 -47.296875 C 35.503906 -46.773438 34.554688 -46.03125 33.828125 -45.0625 Z M 33.828125 -19.21875 "/></g></g></g><g fill="#4f3770" fill-opacity="1"><g transform="translate(134.636716, 523.499994)"><g><path d="M 71.765625 -28.28125 C 71.765625 -18.613281 68.503906 -11.28125 61.984375 -6.28125 C 55.460938 -1.289062 45.878906 1.203125 33.234375 1.203125 C 28.148438 1.203125 23.429688 0.835938 19.078125 0.109375 C 14.734375 -0.609375 10.390625 -1.734375 6.046875 -3.265625 L 6.046875 -25.734375 C 9.992188 -23.484375 14.34375 -21.753906 19.09375 -20.546875 C 23.84375 -19.335938 28.675781 -18.734375 33.59375 -18.734375 C 37.457031 -18.734375 40.351562 -19.335938 42.28125 -20.546875 C 44.21875 -21.753906 45.1875 -23.566406 45.1875 -25.984375 C 45.1875 -27.671875 44.398438 -29.21875 42.828125 -30.625 C 41.265625 -32.039062 37.703125 -33.875 32.140625 -36.125 C 26.828125 -38.382812 22.898438 -40.257812 20.359375 -41.75 C 17.816406 -43.238281 15.625 -44.867188 13.78125 -46.640625 C 11.195312 -49.140625 9.257812 -51.976562 7.96875 -55.15625 C 6.6875 -58.34375 6.046875 -61.90625 6.046875 -65.84375 C 6.046875 -74.550781 9.222656 -81.320312 15.578125 -86.15625 C 21.941406 -90.988281 30.847656 -93.40625 42.296875 -93.40625 C 46.960938 -93.40625 51.550781 -92.941406 56.0625 -92.015625 C 60.570312 -91.085938 64.476562 -89.773438 67.78125 -88.078125 L 67.78125 -64.40625 C 64.644531 -67.0625 60.738281 -69.171875 56.0625 -70.734375 C 51.394531 -72.304688 46.679688 -73.09375 41.921875 -73.09375 C 38.546875 -73.09375 36.050781 -72.628906 34.4375 -71.703125 C 32.820312 -70.785156 32.015625 -69.359375 32.015625 -67.421875 C 32.015625 -65.566406 32.878906 -63.851562 34.609375 -62.28125 C 36.347656 -60.71875 40.195312 -58.644531 46.15625 -56.0625 C 51.226562 -53.882812 54.992188 -52.09375 57.453125 -50.6875 C 59.910156 -49.28125 62.023438 -47.8125 63.796875 -46.28125 C 66.453125 -43.863281 68.441406 -41.164062 69.765625 -38.1875 C 71.097656 -35.207031 71.765625 -31.90625 71.765625 -28.28125 Z M 71.765625 -28.28125 "/></g></g></g><g fill="#4f3770" fill-opacity="1"><g transform="translate(212.452577, 523.499994)"><g><path d="M 60.78125 -19.8125 L 60.78125 0 L 7.25 0 L 7.25 -19.8125 L 20.90625 -19.8125 L 20.90625 -72.375 L 7.25 -72.375 L 7.25 -92.1875 L 60.78125 -92.1875 L 60.78125 -72.375 L 47.25 -72.375 L 47.25 -19.8125 Z M 60.78125 -19.8125 "/></g></g></g><g fill="#4f3770" fill-opacity="1"><g transform="translate(280.481038, 523.499994)"><g><path d="M 71.765625 -28.28125 C 71.765625 -18.613281 68.503906 -11.28125 61.984375 -6.28125 C 55.460938 -1.289062 45.878906 1.203125 33.234375 1.203125 C 28.148438 1.203125 23.429688 0.835938 19.078125 0.109375 C 14.734375 -0.609375 10.390625 -1.734375 6.046875 -3.265625 L 6.046875 -25.734375 C 9.992188 -23.484375 14.34375 -21.753906 19.09375 -20.546875 C 23.84375 -19.335938 28.675781 -18.734375 33.59375 -18.734375 C 37.457031 -18.734375 40.351562 -19.335938 42.28125 -20.546875 C 44.21875 -21.753906 45.1875 -23.566406 45.1875 -25.984375 C 45.1875 -27.671875 44.398438 -29.21875 42.828125 -30.625 C 41.265625 -32.039062 37.703125 -33.875 32.140625 -36.125 C 26.828125 -38.382812 22.898438 -40.257812 20.359375 -41.75 C 17.816406 -43.238281 15.625 -44.867188 13.78125 -46.640625 C 11.195312 -49.140625 9.257812 -51.976562 7.96875 -55.15625 C 6.6875 -58.34375 6.046875 -61.90625 6.046875 -65.84375 C 6.046875 -74.550781 9.222656 -81.320312 15.578125 -86.15625 C 21.941406 -90.988281 30.847656 -93.40625 42.296875 -93.40625 C 46.960938 -93.40625 51.550781 -92.941406 56.0625 -92.015625 C 60.570312 -91.085938 64.476562 -89.773438 67.78125 -88.078125 L 67.78125 -64.40625 C 64.644531 -67.0625 60.738281 -69.171875 56.0625 -70.734375 C 51.394531 -72.304688 46.679688 -73.09375 41.921875 -73.09375 C 38.546875 -73.09375 36.050781 -72.628906 34.4375 -71.703125 C 32.820312 -70.785156 32.015625 -69.359375 32.015625 -67.421875 C 32.015625 -65.566406 32.878906 -63.851562 34.609375 -62.28125 C 36.347656 -60.71875 40.195312 -58.644531 46.15625 -56.0625 C 51.226562 -53.882812 54.992188 -52.09375 57.453125 -50.6875 C 59.910156 -49.28125 62.023438 -47.8125 63.796875 -46.28125 C 66.453125 -43.863281 68.441406 -41.164062 69.765625 -38.1875 C 71.097656 -35.207031 71.765625 -31.90625 71.765625 -28.28125 Z M 71.765625 -28.28125 "/></g></g></g><g fill="#4f3770" fill-opacity="1"><g transform="translate(358.296899, 523.499994)"><g><path d="M 49.78125 -71.171875 L 49.78125 0 L 23.6875 0 L 23.6875 -71.171875 L 0 -71.171875 L 0 -92.1875 L 73.46875 -92.1875 L 73.46875 -71.171875 Z M 49.78125 -71.171875 "/></g></g></g><g fill="#4f3770" fill-opacity="1"><g transform="translate(431.762814, 523.499994)"><g><path d="M 70.5625 -19.8125 L 70.5625 0 L 9.671875 0 L 9.671875 -92.1875 L 69.109375 -92.1875 L 69.109375 -72.375 L 36 -72.375 L 36 -56.671875 L 66.703125 -56.671875 L 66.703125 -36.859375 L 36 -36.859375 L 36 -19.8125 Z M 70.5625 -19.8125 "/></g></g></g><g fill="#4f3770" fill-opacity="1"><g transform="translate(509.578675, 523.499994)"><g><path d="M 35.890625 -30.328125 L 35.890625 0 L 9.671875 0 L 9.671875 -92.1875 L 42.171875 -92.1875 C 54.734375 -92.1875 64.234375 -89.6875 70.671875 -84.6875 C 77.117188 -79.695312 80.34375 -72.289062 80.34375 -62.46875 C 80.34375 -56.988281 79.210938 -52.070312 76.953125 -47.71875 C 74.703125 -43.375 71.523438 -39.953125 67.421875 -37.453125 L 85.90625 0 L 56.546875 0 L 43.734375 -30.5625 C 42.929688 -30.488281 42.046875 -30.429688 41.078125 -30.390625 C 40.109375 -30.347656 39.222656 -30.328125 38.421875 -30.328125 Z M 42.171875 -71.65625 L 35.890625 -71.65625 L 35.890625 -50.875 L 40.84375 -50.875 C 45.1875 -50.875 48.484375 -51.78125 50.734375 -53.59375 C 52.992188 -55.40625 54.125 -58.082031 54.125 -61.625 C 54.125 -64.84375 53.078125 -67.316406 50.984375 -69.046875 C 48.890625 -70.785156 45.953125 -71.65625 42.171875 -71.65625 Z M 42.171875 -71.65625 "/></g></g></g><g fill="#4f3770" fill-opacity="1"><g transform="translate(597.906941, 523.499994)"><g><path d="M 71.765625 -28.28125 C 71.765625 -18.613281 68.503906 -11.28125 61.984375 -6.28125 C 55.460938 -1.289062 45.878906 1.203125 33.234375 1.203125 C 28.148438 1.203125 23.429688 0.835938 19.078125 0.109375 C 14.734375 -0.609375 10.390625 -1.734375 6.046875 -3.265625 L 6.046875 -25.734375 C 9.992188 -23.484375 14.34375 -21.753906 19.09375 -20.546875 C 23.84375 -19.335938 28.675781 -18.734375 33.59375 -18.734375 C 37.457031 -18.734375 40.351562 -19.335938 42.28125 -20.546875 C 44.21875 -21.753906 45.1875 -23.566406 45.1875 -25.984375 C 45.1875 -27.671875 44.398438 -29.21875 42.828125 -30.625 C 41.265625 -32.039062 37.703125 -33.875 32.140625 -36.125 C 26.828125 -38.382812 22.898438 -40.257812 20.359375 -41.75 C 17.816406 -43.238281 15.625 -44.867188 13.78125 -46.640625 C 11.195312 -49.140625 9.257812 -51.976562 7.96875 -55.15625 C 6.6875 -58.34375 6.046875 -61.90625 6.046875 -65.84375 C 6.046875 -74.550781 9.222656 -81.320312 15.578125 -86.15625 C 21.941406 -90.988281 30.847656 -93.40625 42.296875 -93.40625 C 46.960938 -93.40625 51.550781 -92.941406 56.0625 -92.015625 C 60.570312 -91.085938 64.476562 -89.773438 67.78125 -88.078125 L 67.78125 -64.40625 C 64.644531 -67.0625 60.738281 -69.171875 56.0625 -70.734375 C 51.394531 -72.304688 46.679688 -73.09375 41.921875 -73.09375 C 38.546875 -73.09375 36.050781 -72.628906 34.4375 -71.703125 C 32.820312 -70.785156 32.015625 -69.359375 32.015625 -67.421875 C 32.015625 -65.566406 32.878906 -63.851562 34.609375 -62.28125 C 36.347656 -60.71875 40.195312 -58.644531 46.15625 -56.0625 C 51.226562 -53.882812 54.992188 -52.09375 57.453125 -50.6875 C 59.910156 -49.28125 62.023438 -47.8125 63.796875 -46.28125 C 66.453125 -43.863281 68.441406 -41.164062 69.765625 -38.1875 C 71.097656 -35.207031 71.765625 -31.90625 71.765625 -28.28125 Z M 71.765625 -28.28125 "/></g></g></g></svg>