<svg xmlns="http://www.w3.org/2000/svg" xmlns:xlink="http://www.w3.org/1999/xlink" width="1080" zoomAndPan="magnify" viewBox="0 0 810 809.999993" height="1080" preserveAspectRatio="xMidYMid meet" version="1.0"><defs><g/></defs><rect x="-81" width="972" fill="#ffffff" y="-80.999999" height="971.999992" fill-opacity="1"/><rect x="-81" width="972" fill="#ffd33b" y="-80.999999" height="971.999992" fill-opacity="1"/><g fill="#272672" fill-opacity="1"><g transform="translate(186.728843, 469.074841)"><g><path d="M 14.234375 -195.671875 L 74.953125 -195.671875 C 93.285156 -195.671875 107.90625 -191.753906 118.8125 -183.921875 C 129.726562 -176.097656 135.1875 -163.410156 135.1875 -145.859375 C 135.1875 -126.253906 127.046875 -112.257812 110.765625 -103.875 C 138.585938 -98.976562 152.5 -82.535156 152.5 -54.546875 C 152.5 -38.109375 146.804688 -24.90625 135.421875 -14.9375 C 124.035156 -4.976562 108.382812 0 88.46875 0 L 14.234375 0 Z M 58.8125 -119.0625 L 62.375 -119.0625 C 72.332031 -119.0625 79.757812 -120.800781 84.65625 -124.28125 C 89.5625 -127.757812 92.015625 -133.453125 92.015625 -141.359375 C 92.015625 -154.640625 82.132812 -161.28125 62.375 -161.28125 L 58.8125 -161.28125 Z M 58.8125 -34.390625 L 72.8125 -34.390625 C 94.632812 -34.390625 105.546875 -41.660156 105.546875 -56.203125 C 105.546875 -64.898438 102.816406 -71.144531 97.359375 -74.9375 C 91.898438 -78.738281 83.71875 -80.640625 72.8125 -80.640625 L 58.8125 -80.640625 Z M 58.8125 -34.390625 "/></g></g></g><g fill="#272672" fill-opacity="1"><g transform="translate(344.680477, 469.074841)"><g><path d="M 58.8125 -195.671875 L 58.8125 0 L 14.234375 0 L 14.234375 -195.671875 Z M 58.8125 -195.671875 "/></g></g></g><g fill="#272672" fill-opacity="1"><g transform="translate(417.727139, 469.074841)"><g><path d="M 191.15625 -109.578125 L 191.15625 -67.125 C 186.101562 -43.875 175.035156 -26.28125 157.953125 -14.34375 C 140.878906 -2.40625 121.828125 3.5625 100.796875 3.5625 C 74.390625 3.5625 51.894531 -6.316406 33.3125 -26.078125 C 14.738281 -45.847656 5.453125 -69.726562 5.453125 -97.71875 C 5.453125 -126.175781 14.539062 -150.207031 32.71875 -169.8125 C 50.90625 -189.414062 73.597656 -199.21875 100.796875 -199.21875 C 132.578125 -199.21875 157.71875 -188.070312 176.21875 -165.78125 L 147.046875 -133.765625 C 136.609375 -150.523438 122.0625 -158.90625 103.40625 -158.90625 C 89.644531 -158.90625 77.898438 -152.9375 68.171875 -141 C 58.453125 -129.0625 53.59375 -114.632812 53.59375 -97.71875 C 53.59375 -81.113281 58.453125 -66.921875 68.171875 -55.140625 C 77.898438 -43.359375 89.644531 -37.46875 103.40625 -37.46875 C 114.789062 -37.46875 124.710938 -40.90625 133.171875 -47.78125 C 141.628906 -54.664062 145.859375 -63.800781 145.859375 -75.1875 L 100.796875 -75.1875 L 100.796875 -109.578125 Z M 191.15625 -109.578125 "/></g></g></g><g fill="#000000" fill-opacity="1"><g transform="translate(219.861321, 244.246414)"><g><path d="M 11.25 -50.546875 L 11.25 0 L 5.015625 0 L 5.015625 -50.546875 Z M 11.25 -50.546875 "/></g></g></g><g fill="#000000" fill-opacity="1"><g transform="translate(236.124485, 244.246414)"><g><path d="M 11.46875 -44.078125 L 4.78125 -44.078125 L 4.78125 -50.546875 L 11.46875 -50.546875 Z M 11.25 0 L 5.015625 0 L 5.015625 -37.546875 L 11.25 -37.546875 Z M 11.25 0 "/></g></g></g><g fill="#000000" fill-opacity="1"><g transform="translate(252.387648, 244.246414)"><g><path d="M 27.0625 -5.859375 L 27.0625 -0.609375 C 26.25 -0.253906 25.144531 0.0351562 23.75 0.265625 C 22.351562 0.492188 21.023438 0.609375 19.765625 0.609375 C 15.203125 0.609375 11.941406 -0.398438 9.984375 -2.421875 C 8.035156 -4.453125 7.0625 -7.953125 7.0625 -12.921875 L 7.0625 -32.21875 L 1.4375 -32.21875 L 1.4375 -37.546875 L 7.140625 -37.546875 L 8.125 -46.65625 L 13.296875 -46.65625 L 13.296875 -37.546875 L 26.671875 -37.546875 L 26.671875 -32.21875 L 13.296875 -32.21875 L 13.296875 -13.140625 C 13.296875 -10.054688 13.863281 -7.957031 15 -6.84375 C 16.144531 -5.726562 18.160156 -5.171875 21.046875 -5.171875 C 21.960938 -5.171875 23.015625 -5.242188 24.203125 -5.390625 C 25.390625 -5.546875 26.34375 -5.703125 27.0625 -5.859375 Z M 27.0625 -5.859375 "/></g></g></g><g fill="#000000" fill-opacity="1"><g transform="translate(280.582204, 244.246414)"><g><path d="M 27.0625 -5.859375 L 27.0625 -0.609375 C 26.25 -0.253906 25.144531 0.0351562 23.75 0.265625 C 22.351562 0.492188 21.023438 0.609375 19.765625 0.609375 C 15.203125 0.609375 11.941406 -0.398438 9.984375 -2.421875 C 8.035156 -4.453125 7.0625 -7.953125 7.0625 -12.921875 L 7.0625 -32.21875 L 1.4375 -32.21875 L 1.4375 -37.546875 L 7.140625 -37.546875 L 8.125 -46.65625 L 13.296875 -46.65625 L 13.296875 -37.546875 L 26.671875 -37.546875 L 26.671875 -32.21875 L 13.296875 -32.21875 L 13.296875 -13.140625 C 13.296875 -10.054688 13.863281 -7.957031 15 -6.84375 C 16.144531 -5.726562 18.160156 -5.171875 21.046875 -5.171875 C 21.960938 -5.171875 23.015625 -5.242188 24.203125 -5.390625 C 25.390625 -5.546875 26.34375 -5.703125 27.0625 -5.859375 Z M 27.0625 -5.859375 "/></g></g></g><g fill="#000000" fill-opacity="1"><g transform="translate(308.77676, 244.246414)"><g><path d="M 11.25 -50.546875 L 11.25 0 L 5.015625 0 L 5.015625 -50.546875 Z M 11.25 -50.546875 "/></g></g></g><g fill="#000000" fill-opacity="1"><g transform="translate(325.039923, 244.246414)"><g><path d="M 33.21875 -7.296875 L 33.21875 -2.046875 C 31.894531 -1.335938 29.953125 -0.71875 27.390625 -0.1875 C 24.835938 0.34375 22.242188 0.609375 19.609375 0.609375 C 13.734375 0.609375 9.523438 -0.910156 6.984375 -3.953125 C 4.453125 -6.992188 3.1875 -12.007812 3.1875 -19 C 3.1875 -25.738281 4.503906 -30.640625 7.140625 -33.703125 C 9.773438 -36.765625 13.984375 -38.296875 19.765625 -38.296875 C 25.128906 -38.296875 28.976562 -37.09375 31.3125 -34.6875 C 33.644531 -32.28125 34.8125 -28.265625 34.8125 -22.640625 C 34.8125 -21.628906 34.785156 -20.691406 34.734375 -19.828125 C 34.679688 -18.972656 34.578125 -17.9375 34.421875 -16.71875 L 9.5 -16.71875 C 9.550781 -12.5625 10.398438 -9.597656 12.046875 -7.828125 C 13.691406 -6.054688 16.539062 -5.171875 20.59375 -5.171875 C 22.769531 -5.171875 25.050781 -5.375 27.4375 -5.78125 C 29.820312 -6.1875 31.75 -6.691406 33.21875 -7.296875 Z M 29.109375 -23.484375 C 29.054688 -26.828125 28.320312 -29.195312 26.90625 -30.59375 C 25.488281 -31.988281 23.109375 -32.6875 19.765625 -32.6875 C 16.015625 -32.6875 13.363281 -31.882812 11.8125 -30.28125 C 10.269531 -28.6875 9.5 -25.890625 9.5 -21.890625 L 29.03125 -21.890625 C 29.03125 -21.992188 29.039062 -22.234375 29.0625 -22.609375 C 29.09375 -22.992188 29.109375 -23.285156 29.109375 -23.484375 Z M 29.109375 -23.484375 "/></g></g></g><g fill="#000000" fill-opacity="1"><g transform="translate(362.88598, 244.246414)"><g/></g></g><g fill="#000000" fill-opacity="1"><g transform="translate(375.881317, 244.246414)"><g><path d="M 11.25 11.546875 L 5.015625 11.546875 L 5.015625 -37.546875 L 10.40625 -37.546875 L 10.796875 -34.203125 L 11.015625 -34.203125 C 12.585938 -35.515625 14.460938 -36.523438 16.640625 -37.234375 C 18.816406 -37.941406 21.148438 -38.296875 23.640625 -38.296875 C 28.753906 -38.296875 32.410156 -36.773438 34.609375 -33.734375 C 36.816406 -30.703125 37.921875 -25.738281 37.921875 -18.84375 C 37.921875 -11.957031 36.578125 -6.992188 33.890625 -3.953125 C 31.210938 -0.910156 26.726562 0.609375 20.4375 0.609375 C 18.5625 0.609375 16.851562 0.476562 15.3125 0.21875 C 13.769531 -0.03125 12.414062 -0.40625 11.25 -0.90625 Z M 31.6875 -18.84375 C 31.6875 -24.007812 30.960938 -27.609375 29.515625 -29.640625 C 28.078125 -31.671875 25.382812 -32.6875 21.4375 -32.6875 C 19.5625 -32.6875 17.773438 -32.414062 16.078125 -31.875 C 14.378906 -31.34375 12.769531 -30.570312 11.25 -29.5625 L 11.25 -6.6875 C 12.507812 -6.175781 13.8125 -5.796875 15.15625 -5.546875 C 16.5 -5.296875 18.007812 -5.171875 19.6875 -5.171875 C 24.394531 -5.171875 27.570312 -6.144531 29.21875 -8.09375 C 30.863281 -10.039062 31.6875 -13.625 31.6875 -18.84375 Z M 31.6875 -18.84375 "/></g></g></g><g fill="#000000" fill-opacity="1"><g transform="translate(416.995222, 244.246414)"><g><path d="M 33.21875 -7.296875 L 33.21875 -2.046875 C 31.894531 -1.335938 29.953125 -0.71875 27.390625 -0.1875 C 24.835938 0.34375 22.242188 0.609375 19.609375 0.609375 C 13.734375 0.609375 9.523438 -0.910156 6.984375 -3.953125 C 4.453125 -6.992188 3.1875 -12.007812 3.1875 -19 C 3.1875 -25.738281 4.503906 -30.640625 7.140625 -33.703125 C 9.773438 -36.765625 13.984375 -38.296875 19.765625 -38.296875 C 25.128906 -38.296875 28.976562 -37.09375 31.3125 -34.6875 C 33.644531 -32.28125 34.8125 -28.265625 34.8125 -22.640625 C 34.8125 -21.628906 34.785156 -20.691406 34.734375 -19.828125 C 34.679688 -18.972656 34.578125 -17.9375 34.421875 -16.71875 L 9.5 -16.71875 C 9.550781 -12.5625 10.398438 -9.597656 12.046875 -7.828125 C 13.691406 -6.054688 16.539062 -5.171875 20.59375 -5.171875 C 22.769531 -5.171875 25.050781 -5.375 27.4375 -5.78125 C 29.820312 -6.1875 31.75 -6.691406 33.21875 -7.296875 Z M 29.109375 -23.484375 C 29.054688 -26.828125 28.320312 -29.195312 26.90625 -30.59375 C 25.488281 -31.988281 23.109375 -32.6875 19.765625 -32.6875 C 16.015625 -32.6875 13.363281 -31.882812 11.8125 -30.28125 C 10.269531 -28.6875 9.5 -25.890625 9.5 -21.890625 L 29.03125 -21.890625 C 29.03125 -21.992188 29.039062 -22.234375 29.0625 -22.609375 C 29.09375 -22.992188 29.109375 -23.285156 29.109375 -23.484375 Z M 29.109375 -23.484375 "/></g></g></g><g fill="#000000" fill-opacity="1"><g transform="translate(454.841289, 244.246414)"><g><path d="M 38 -18.84375 C 38 -11.75 36.691406 -6.734375 34.078125 -3.796875 C 31.472656 -0.859375 27.003906 0.609375 20.671875 0.609375 C 14.140625 0.609375 9.601562 -0.804688 7.0625 -3.640625 C 4.53125 -6.484375 3.265625 -11.550781 3.265625 -18.84375 C 3.265625 -25.988281 4.566406 -31.015625 7.171875 -33.921875 C 9.785156 -36.835938 14.285156 -38.296875 20.671875 -38.296875 C 27.203125 -38.296875 31.722656 -36.878906 34.234375 -34.046875 C 36.742188 -31.210938 38 -26.144531 38 -18.84375 Z M 9.5 -18.921875 C 9.5 -13.347656 10.234375 -9.660156 11.703125 -7.859375 C 13.171875 -6.066406 16.160156 -5.171875 20.671875 -5.171875 C 25.023438 -5.171875 27.960938 -6.117188 29.484375 -8.015625 C 31.003906 -9.921875 31.765625 -13.554688 31.765625 -18.921875 C 31.765625 -24.492188 31.039062 -28.179688 29.59375 -29.984375 C 28.15625 -31.785156 25.179688 -32.6875 20.671875 -32.6875 C 16.265625 -32.6875 13.300781 -31.75 11.78125 -29.875 C 10.257812 -28 9.5 -24.347656 9.5 -18.921875 Z M 9.5 -18.921875 "/></g></g></g><g fill="#000000" fill-opacity="1"><g transform="translate(496.107172, 244.246414)"><g><path d="M 11.25 11.546875 L 5.015625 11.546875 L 5.015625 -37.546875 L 10.40625 -37.546875 L 10.796875 -34.203125 L 11.015625 -34.203125 C 12.585938 -35.515625 14.460938 -36.523438 16.640625 -37.234375 C 18.816406 -37.941406 21.148438 -38.296875 23.640625 -38.296875 C 28.753906 -38.296875 32.410156 -36.773438 34.609375 -33.734375 C 36.816406 -30.703125 37.921875 -25.738281 37.921875 -18.84375 C 37.921875 -11.957031 36.578125 -6.992188 33.890625 -3.953125 C 31.210938 -0.910156 26.726562 0.609375 20.4375 0.609375 C 18.5625 0.609375 16.851562 0.476562 15.3125 0.21875 C 13.769531 -0.03125 12.414062 -0.40625 11.25 -0.90625 Z M 31.6875 -18.84375 C 31.6875 -24.007812 30.960938 -27.609375 29.515625 -29.640625 C 28.078125 -31.671875 25.382812 -32.6875 21.4375 -32.6875 C 19.5625 -32.6875 17.773438 -32.414062 16.078125 -31.875 C 14.378906 -31.34375 12.769531 -30.570312 11.25 -29.5625 L 11.25 -6.6875 C 12.507812 -6.175781 13.8125 -5.796875 15.15625 -5.546875 C 16.5 -5.296875 18.007812 -5.171875 19.6875 -5.171875 C 24.394531 -5.171875 27.570312 -6.144531 29.21875 -8.09375 C 30.863281 -10.039062 31.6875 -13.625 31.6875 -18.84375 Z M 31.6875 -18.84375 "/></g></g></g><g fill="#000000" fill-opacity="1"><g transform="translate(537.221076, 244.246414)"><g><path d="M 11.25 -50.546875 L 11.25 0 L 5.015625 0 L 5.015625 -50.546875 Z M 11.25 -50.546875 "/></g></g></g><g fill="#000000" fill-opacity="1"><g transform="translate(553.484228, 244.246414)"><g><path d="M 33.21875 -7.296875 L 33.21875 -2.046875 C 31.894531 -1.335938 29.953125 -0.71875 27.390625 -0.1875 C 24.835938 0.34375 22.242188 0.609375 19.609375 0.609375 C 13.734375 0.609375 9.523438 -0.910156 6.984375 -3.953125 C 4.453125 -6.992188 3.1875 -12.007812 3.1875 -19 C 3.1875 -25.738281 4.503906 -30.640625 7.140625 -33.703125 C 9.773438 -36.765625 13.984375 -38.296875 19.765625 -38.296875 C 25.128906 -38.296875 28.976562 -37.09375 31.3125 -34.6875 C 33.644531 -32.28125 34.8125 -28.265625 34.8125 -22.640625 C 34.8125 -21.628906 34.785156 -20.691406 34.734375 -19.828125 C 34.679688 -18.972656 34.578125 -17.9375 34.421875 -16.71875 L 9.5 -16.71875 C 9.550781 -12.5625 10.398438 -9.597656 12.046875 -7.828125 C 13.691406 -6.054688 16.539062 -5.171875 20.59375 -5.171875 C 22.769531 -5.171875 25.050781 -5.375 27.4375 -5.78125 C 29.820312 -6.1875 31.75 -6.691406 33.21875 -7.296875 Z M 29.109375 -23.484375 C 29.054688 -26.828125 28.320312 -29.195312 26.90625 -30.59375 C 25.488281 -31.988281 23.109375 -32.6875 19.765625 -32.6875 C 16.015625 -32.6875 13.363281 -31.882812 11.8125 -30.28125 C 10.269531 -28.6875 9.5 -25.890625 9.5 -21.890625 L 29.03125 -21.890625 C 29.03125 -21.992188 29.039062 -22.234375 29.0625 -22.609375 C 29.09375 -22.992188 29.109375 -23.285156 29.109375 -23.484375 Z M 29.109375 -23.484375 "/></g></g></g><g fill="#272672" fill-opacity="1"><g transform="translate(196.831942, 573.315927)"><g><path d="M 71.5 0 L 57.875 -47.765625 L 44.265625 0 L 22.703125 0 L -1.546875 -85.109375 L 20.015625 -85.109375 L 34.5625 -26.71875 L 35.078125 -26.71875 L 50.546875 -85.109375 L 65.203125 -85.109375 L 80.6875 -26.71875 L 81.203125 -26.71875 L 95.75 -85.109375 L 117.203125 -85.109375 L 92.953125 0 Z M 71.5 0 "/></g></g></g><g fill="#272672" fill-opacity="1"><g transform="translate(312.487622, 573.315927)"><g><path d="M 2.375 -42.609375 C 2.375 -54.921875 6.566406 -65.34375 14.953125 -73.875 C 23.347656 -82.40625 33.460938 -86.671875 45.296875 -86.671875 C 57.191406 -86.671875 67.300781 -82.421875 75.625 -73.921875 C 83.945312 -65.429688 88.109375 -54.992188 88.109375 -42.609375 C 88.109375 -30.160156 84.015625 -19.6875 75.828125 -11.1875 C 67.640625 -2.695312 57.460938 1.546875 45.296875 1.546875 C 32.847656 1.546875 22.582031 -2.664062 14.5 -11.09375 C 6.414062 -19.519531 2.375 -30.023438 2.375 -42.609375 Z M 23.3125 -42.609375 C 23.3125 -38.140625 24 -34.0625 25.375 -30.375 C 26.75 -26.695312 29.15625 -23.585938 32.59375 -21.046875 C 36.039062 -18.503906 40.273438 -17.234375 45.296875 -17.234375 C 52.515625 -17.234375 57.960938 -19.707031 61.640625 -24.65625 C 65.328125 -29.613281 67.171875 -35.597656 67.171875 -42.609375 C 67.171875 -49.554688 65.296875 -55.519531 61.546875 -60.5 C 57.796875 -65.488281 52.378906 -67.984375 45.296875 -67.984375 C 38.273438 -67.984375 32.851562 -65.488281 29.03125 -60.5 C 25.21875 -55.519531 23.3125 -49.554688 23.3125 -42.609375 Z M 23.3125 -42.609375 "/></g></g></g><g fill="#272672" fill-opacity="1"><g transform="translate(402.969368, 573.315927)"><g><path d="M 6.1875 -85.109375 L 36.625 -85.109375 C 44.8125 -85.109375 51.484375 -82.925781 56.640625 -78.5625 C 61.796875 -74.195312 64.375 -67.957031 64.375 -59.84375 C 64.375 -53.582031 62.804688 -48.335938 59.671875 -44.109375 C 56.546875 -39.878906 52.300781 -36.90625 46.9375 -35.1875 L 76.25 0 L 51.578125 0 L 25.59375 -33.640625 L 25.59375 0 L 6.1875 0 Z M 25.59375 -47.359375 L 27.859375 -47.359375 C 29.640625 -47.359375 31.148438 -47.390625 32.390625 -47.453125 C 33.628906 -47.523438 35.039062 -47.765625 36.625 -48.171875 C 38.207031 -48.585938 39.476562 -49.171875 40.4375 -49.921875 C 41.40625 -50.679688 42.234375 -51.785156 42.921875 -53.234375 C 43.609375 -54.679688 43.953125 -56.4375 43.953125 -58.5 C 43.953125 -60.5625 43.609375 -62.3125 42.921875 -63.75 C 42.234375 -65.195312 41.40625 -66.300781 40.4375 -67.0625 C 39.476562 -67.820312 38.207031 -68.40625 36.625 -68.8125 C 35.039062 -69.226562 33.628906 -69.46875 32.390625 -69.53125 C 31.148438 -69.601562 29.640625 -69.640625 27.859375 -69.640625 L 25.59375 -69.640625 Z M 25.59375 -47.359375 "/></g></g></g><g fill="#272672" fill-opacity="1"><g transform="translate(476.840428, 573.315927)"><g><path d="M 25.59375 -85.109375 L 25.59375 -17.015625 L 54.890625 -17.015625 L 54.890625 0 L 6.1875 0 L 6.1875 -85.109375 Z M 25.59375 -85.109375 "/></g></g></g><g fill="#272672" fill-opacity="1"><g transform="translate(535.132554, 573.315927)"><g><path d="M 6.1875 -85.109375 L 30.84375 -85.109375 C 42.675781 -85.109375 52.785156 -81.066406 61.171875 -72.984375 C 69.566406 -64.910156 73.765625 -54.785156 73.765625 -42.609375 C 73.765625 -30.367188 69.585938 -20.207031 61.234375 -12.125 C 52.878906 -4.039062 42.75 0 30.84375 0 L 6.1875 0 Z M 25.59375 -17.328125 L 28.578125 -17.328125 C 35.660156 -17.328125 41.453125 -19.71875 45.953125 -24.5 C 50.460938 -29.28125 52.753906 -35.28125 52.828125 -42.5 C 52.828125 -49.726562 50.570312 -55.75 46.0625 -60.5625 C 41.5625 -65.375 35.734375 -67.78125 28.578125 -67.78125 L 25.59375 -67.78125 Z M 25.59375 -17.328125 "/></g></g></g></svg>